<?xml version="1.0" encoding="UTF-8" standalone="no"?>
<svg
   xmlns:dc="http://purl.org/dc/elements/1.1/"
   xmlns:cc="http://creativecommons.org/ns#"
   xmlns:rdf="http://www.w3.org/1999/02/22-rdf-syntax-ns#"
   xmlns:svg="http://www.w3.org/2000/svg"
   xmlns="http://www.w3.org/2000/svg"
   xmlns:xlink="http://www.w3.org/1999/xlink"
   xmlns:sodipodi="http://sodipodi.sourceforge.net/DTD/sodipodi-0.dtd"
   xmlns:inkscape="http://www.inkscape.org/namespaces/inkscape"
   id="svg2"
   sodipodi:version="0.32"
   inkscape:version="1.0.1 (3bc2e813f5, 2020-09-07)"
   width="743.75"
   height="1052.5"
   xml:space="preserve"
   sodipodi:docname="Logbook-A6-_dwustronny_by_rushcore_page1.svg"
   inkscape:output_extension="org.inkscape.output.svg.inkscape"
   version="1.1"><metadata
     id="metadata7"><rdf:RDF><cc:Work
         rdf:about=""><dc:format>image/svg+xml</dc:format><dc:type
           rdf:resource="http://purl.org/dc/dcmitype/StillImage" /><dc:title></dc:title></cc:Work></rdf:RDF></metadata><defs
     id="defs5"><inkscape:perspective
   sodipodi:type="inkscape:persp3d"
   inkscape:vp_x="0 : 526.18109 : 1"
   inkscape:vp_y="0 : 1000 : 0"
   inkscape:vp_z="744.09448 : 526.18109 : 1"
   inkscape:persp3d-origin="372.04724 : 350.78739 : 1"
   id="perspective9" /><clipPath
   clipPathUnits="userSpaceOnUse"
   id="clipPath19"><path
     d="M 0,2.66016 L 4958,2.66016 L 4958,7014.68 L 0,7014.68 L 0,2.66016"
     id="path21" /></clipPath><clipPath
   clipPathUnits="userSpaceOnUse"
   id="clipPath355"><path
     d="M 2992.5,5003.15 L 3778.94,5003.15 L 3778.94,5853.09 L 2992.5,5853.09 L 2992.5,5003.15"
     id="path357" /></clipPath><clipPath
   clipPathUnits="userSpaceOnUse"
   id="clipPath399"><path
     d="M 0,2.66016 L 4958,2.66016 L 4958,7014.68 L 0,7014.68 L 0,2.66016"
     id="path401" /></clipPath><clipPath
   clipPathUnits="userSpaceOnUse"
   id="clipPath505"><path
     d="M 822.695,1464.98 L 2346.69,1464.98 L 2346.69,3112.03 L 822.695,3112.03 L 822.695,1464.98"
     id="path507" /></clipPath><clipPath
   clipPathUnits="userSpaceOnUse"
   id="clipPath549"><path
     d="M 0,2.66016 L 4958,2.66016 L 4958,7014.68 L 0,7014.68 L 0,2.66016"
     id="path551" /></clipPath>













<inkscape:perspective
   id="perspective2822"
   inkscape:persp3d-origin="372.04724 : 350.78739 : 1"
   inkscape:vp_z="744.09448 : 526.18109 : 1"
   inkscape:vp_y="0 : 1000 : 0"
   inkscape:vp_x="0 : 526.18109 : 1"
   sodipodi:type="inkscape:persp3d" /><inkscape:perspective
   id="perspective2926"
   inkscape:persp3d-origin="372.04724 : 350.78739 : 1"
   inkscape:vp_z="744.09448 : 526.18109 : 1"
   inkscape:vp_y="0 : 1000 : 0"
   inkscape:vp_x="0 : 526.18109 : 1"
   sodipodi:type="inkscape:persp3d" />























































































































</defs><sodipodi:namedview
     inkscape:window-height="1017"
     inkscape:window-width="1920"
     inkscape:pageshadow="2"
     inkscape:pageopacity="1"
     guidetolerance="10.0"
     gridtolerance="10.0"
     objecttolerance="10.0"
     borderopacity="1.0"
     bordercolor="#666666"
     pagecolor="#ffffff"
     id="base"
     showgrid="false"
     inkscape:zoom="0.6834755"
     inkscape:cx="-220.11467"
     inkscape:cy="293.14843"
     inkscape:window-x="1358"
     inkscape:window-y="-8"
     inkscape:current-layer="g11"
     inkscape:document-rotation="0"
     inkscape:window-maximized="1" /><g
     id="g11"
     inkscape:groupmode="layer"
     inkscape:label="Logbook-A7-_dwustronny_by_Maciuh"
     transform="matrix(1.25,0,0,-1.25,0,1052.5)"><path
   id="path23"
   style="fill:none;stroke:#231f20;stroke-width:0.499734;stroke-linecap:butt;stroke-linejoin:miter;stroke-miterlimit:4;stroke-dasharray:2.02392, 2.02392;stroke-dashoffset:0;stroke-opacity:1"
   d="M 91.36824,85.28016 H 133.866" /><g
   id="g25"><text
   id="text27"
   transform="matrix(1,0,0,-1,142.365,81.6352)"><tspan
     id="tspan29"
     sodipodi:role="line"
     y="0"
     x="0 5.9967999 9.3310204 16.659111 19.993332 26.661774 29.995993 35.321152 38.655373 45.323814 50.648972 53.983192"
     style="font-variant:normal;font-weight:normal;font-size:11.9936px;font-family:FrutigerPl;-inkscape-font-specification:FrutigerPl-Roman;writing-mode:lr-tb;fill:#231f20;fill-opacity:1;fill-rule:nonzero;stroke:none">Linie cięcia</tspan></text>















</g><image
   sodipodi:absref="C:\Users\artur\PhpstormProjects\opencaching-pl\logbook\logo2.png"
   xlink:href="logo2.png"
   transform="matrix(0,-1,-1,0,0,0)"
   xml:id="bglogo"
   width="241.88014"
   height="253.83351"
   id="image2928"
   x="-690.71985"
   y="-424.39676" /><path
   id="path35"
   style="fill:none;stroke:#231f20;stroke-width:0.499734;stroke-linecap:butt;stroke-linejoin:miter;stroke-miterlimit:4;stroke-dasharray:2.02392, 2.02392;stroke-dashoffset:0;stroke-opacity:1"
   d="m 24.64776,718.4868 h 42.4974" /><path
   id="path37"
   style="fill:none;stroke:#231f20;stroke-width:0.499734;stroke-linecap:butt;stroke-linejoin:miter;stroke-miterlimit:4;stroke-dasharray:2.02392, 2.02392;stroke-dashoffset:0;stroke-opacity:1"
   d="M 82.3824,733.752 V 776.25" /><path
   id="path39"
   style="fill:none;stroke:#231f20;stroke-width:0.499734;stroke-linecap:butt;stroke-linejoin:miter;stroke-miterlimit:4;stroke-dasharray:2.02392, 2.02392;stroke-dashoffset:0;stroke-opacity:1"
   d="m 512.5488,776.7204 v -42.498" /><path
   id="path41"
   style="fill:none;stroke:#231f20;stroke-width:0.499734;stroke-linecap:butt;stroke-linejoin:miter;stroke-miterlimit:4;stroke-dasharray:2.02392, 2.02392;stroke-dashoffset:0;stroke-opacity:1"
   d="m 527.814,718.986 h 42.4968" /><path
   id="path43"
   style="fill:none;stroke:#231f20;stroke-width:0.499734;stroke-linecap:butt;stroke-linejoin:miter;stroke-miterlimit:4;stroke-dasharray:2.02392, 2.02392;stroke-dashoffset:0;stroke-opacity:1"
   d="M 82.41144,66.33612 V 108.8334" /><path
   id="path47"
   style="fill:none;stroke:#231f20;stroke-width:0.499734;stroke-linecap:butt;stroke-linejoin:miter;stroke-miterlimit:4;stroke-dasharray:2.02392, 2.02392;stroke-dashoffset:0;stroke-opacity:1"
   d="M 570.3108,124.0464 H 527.814" /><path
   id="path49"
   style="fill:none;stroke:#231f20;stroke-width:0.499734;stroke-linecap:butt;stroke-linejoin:miter;stroke-miterlimit:4;stroke-dasharray:2.02392, 2.02392;stroke-dashoffset:0;stroke-opacity:1"
   d="M 512.5764,108.78144 V 66.28404" /><path
   id="path53"
   style="fill:none;stroke:#231f20;stroke-width:0.499734;stroke-linecap:round;stroke-linejoin:round;stroke-miterlimit:4;stroke-dasharray:none;stroke-opacity:1"
   d="m 297.48,789.0324 v 0 m 0,27.8304 v 0" /><path
   id="path57"
   style="fill:none;stroke:#231f20;stroke-width:0.499734;stroke-linecap:round;stroke-linejoin:round;stroke-miterlimit:4;stroke-dasharray:none;stroke-opacity:1"
   d="m 297.48,25.21692 v 0 m 0,27.83244 v 0" /><path
   id="path59"
   style="fill:none;stroke:#231f20;stroke-width:0.499734;stroke-linecap:round;stroke-linejoin:round;stroke-miterlimit:4;stroke-dasharray:0, 0.988475;stroke-dashoffset:0;stroke-opacity:1"
   d="M 92.10708,58.86516 H 133.122" /><path
   id="path61"
   style="fill:none;stroke:#231f20;stroke-width:0.499734;stroke-linecap:round;stroke-linejoin:round;stroke-miterlimit:4;stroke-dasharray:none;stroke-opacity:1"
   d="m 91.1184,58.86516 v 0 m 42.4968,0 v 0" /><g
   id="g63"><text
   id="text65"
   transform="matrix(1,0,0,-1,142.365,54.4833)"><tspan
     id="tspan67"
     sodipodi:role="line"
     y="0"
     x="0 8.659379 11.9936 18.662041 21.996262 28.664703 35.992794 42.661236 49.329678 56.657768 59.991985 68.651367 77.310745 81.976257 85.310478 89.97599 94.641495 99.307007"
     style="font-variant:normal;font-weight:normal;font-size:11.9936px;font-family:FrutigerPl;-inkscape-font-specification:FrutigerPl-Roman;writing-mode:lr-tb;fill:#ed1c24;fill-opacity:1;fill-rule:nonzero;stroke:none">NIE PRZECINAJ !!!!</tspan></text>















</g><path
   sodipodi:nodetypes="ccccc"
   id="path423"
   style="fill:none;stroke:#231f20;stroke-width:0.499734;stroke-linecap:butt;stroke-linejoin:miter;stroke-miterlimit:4;stroke-dasharray:none;stroke-opacity:1"
   d="M 82.4112,421.29 H 512.5488 V 718.2696 H 82.4112 Z" /><image
   sodipodi:absref="C:\Users\artur\PhpstormProjects\opencaching-pl\logbook\logo.png"
   xlink:href="logo.png"
   transform="matrix(0,-1,-1,0,0,0)"
   width="209.62225"
   height="219.98149"
   id="image2824"
   xml:id="titlelogo"
   x="-375.45163"
   y="-495.09265" /><path
   sodipodi:nodetypes="ccccc"
   id="path499"
   style="fill:none;stroke:#231f20;stroke-width:0.499734;stroke-linecap:butt;stroke-linejoin:miter;stroke-miterlimit:4;stroke-dasharray:none;stroke-opacity:1"
   d="M 82.4112,123.81 H 512.2764 V 420.7908 H 82.4112 Z" /><text
   transform="scale(1,-1)"
   id="text661"
   x="538.297"
   y="-34.8759"><tspan
     style="font-variant:normal;font-weight:normal;font-size:17.9904px;font-family:TimesNewRomanPSMT;-inkscape-font-specification:TimesNewRomanPSMT;writing-mode:lr-tb;fill:#231f20;fill-opacity:1;fill-rule:nonzero;stroke:none"
     x="538.297 551.28607"
     y="-34.8759"
     sodipodi:role="line"
     id="tspan663">N1</tspan></text>













<text
   transform="scale(1,-1)"
   id="text665"
   x="301.73001"
   y="-104.9137"><tspan
     style="font-variant:normal;font-weight:normal;font-size:11.9936px;font-family:Helvetica;-inkscape-font-specification:Helvetica;writing-mode:lr-tb;fill:#231f20;fill-opacity:1;fill-rule:nonzero;stroke:none"
     x="301.73001 305.06421 311.73267 317.72946 321.06369 325.05756 331.72598 337.72281 343.7196 346.38217 353.05063 356.38483 363.05328 369.72171 375.71851 378.3811 385.04953 391.71799 394.38055"
     y="-104.9137"
     sodipodi:role="line"
     id="tspan667">Instrukcja obsługi:</tspan></text>













<text
   transform="scale(1,-1)"
   id="text669"
   x="301.73001"
   y="-94.919006"><tspan
     style="font-variant:normal;font-weight:normal;font-size:7.99575px;font-family:Helvetica;-inkscape-font-specification:Helvetica;writing-mode:lr-tb;fill:#231f20;fill-opacity:1;fill-rule:nonzero;stroke:none"
     x="301.73001 306.17563 308.39847 310.62128 318.16925 322.16714 326.61276 329.27536 333.72101 337.71887 342.16452 343.93964 346.16245 350.16031 352.38315 355.04572 359.49136 363.93698 367.935 370.15781 375.93076"
     y="-94.919006"
     sodipodi:role="line"
     id="tspan671">1. Wydrukuj strony N1, N3 i N5</tspan><tspan
     style="font-variant:normal;font-weight:normal;font-size:7.99575px;font-family:Helvetica;-inkscape-font-specification:Helvetica;writing-mode:lr-tb;fill:#231f20;fill-opacity:1;fill-rule:nonzero;stroke:none"
     x="301.73001"
     y="-79.919006"
     sodipodi:role="line"
     id="tspan675">2. Włóż odwrotnie pierwsza wydrukowaną stronę do </tspan><tspan
     id="tspan47814"
     style="font-variant:normal;font-weight:normal;font-size:7.99575px;font-family:Helvetica;-inkscape-font-specification:Helvetica;writing-mode:lr-tb;fill:#231f20;fill-opacity:1;fill-rule:nonzero;stroke:none"
     x="301.73001"
     y="-64.919006"
     sodipodi:role="line">podajnika drukarki i ustaw wydruk N2 dokumentu, podob</tspan></text>













<text
   transform="scale(1,-1)"
   id="text677"
   x="502.177"
   y="-74.929626"><tspan
     style="font-variant:normal;font-weight:normal;font-size:7.99575px;font-family:Helvetica;-inkscape-font-specification:Helvetica;writing-mode:lr-tb;fill:#231f20;fill-opacity:1;fill-rule:nonzero;stroke:none"
     x="502.177"
     y="-74.929626"
     id="tspan679">-</tspan></text>













<text
   transform="scale(1,-1)"
   id="text681"
   x="301.73001"
   y="-64.934937"><tspan
     id="tspan47818"
     y="-64.934937"
     x="301.73001"
     style="font-variant:normal;font-weight:normal;font-size:7.99575px;font-family:Helvetica;-inkscape-font-specification:Helvetica;writing-mode:lr-tb;fill:#231f20;fill-opacity:1;fill-rule:nonzero;stroke:none"
     sodipodi:role="line">nie zrób ze stroną N4, drukując po ją po drugiej stronie N3,</tspan><tspan
     id="tspan47822"
     y="-49.934937"
     x="301.73001"
     style="font-variant:normal;font-weight:normal;font-size:7.99575px;font-family:Helvetica;-inkscape-font-specification:Helvetica;writing-mode:lr-tb;fill:#231f20;fill-opacity:1;fill-rule:nonzero;stroke:none"
     sodipodi:role="line">a stronę N6 drukując po drugiej stronie N5.</tspan><tspan
     style="font-variant:normal;font-weight:normal;font-size:7.99575px;font-family:Helvetica;-inkscape-font-specification:Helvetica;writing-mode:lr-tb;fill:#231f20;fill-opacity:1;fill-rule:nonzero;stroke:none"
     x="301.73001 306.17563 308.39847 310.62128 318.16925 322.16714 324.38995 328.8356 330.61066 332.3858 334.60861 338.60648 343.05212 347.49777 351.94339 356.38904 358.16409 362.60941 364.83221 368.83011 371.05292 372.82797 377.27362 381.27148 383.49429 386.15689 390.60254 394.6004 398.59827 400.37332 404.81894 407.04175 408.8168 411.03964 415.03751 419.48315 423.92877 428.37442 430.14948 431.9248 434.14761 439.92056 443.91843 447.91629 451.91418 455.91205 458.13486 462.13275 463.90781 468.35327 470.57608 475.02173 479.46735 485.2403 489.23816 491.46097 495.90662 497.68167 502.1272"
     y="-44.94556"
     sodipodi:role="line"
     id="tspan687">3. Wytnij zgodnie z instrukcją i zepnij wszystkie powstałe </tspan><tspan
     style="font-variant:normal;font-weight:normal;font-size:7.99575px;font-family:Helvetica;-inkscape-font-specification:Helvetica;writing-mode:lr-tb;fill:#231f20;fill-opacity:1;fill-rule:nonzero;stroke:none"
     x="301.73001 305.72787 310.17352 312.83609 315.05893 319.05679 320.8316 323.05444 328.82736 333.27301 335.496 337.71881 341.71667 346.16232 347.93738 352.38303 354.15808 358.6037 363.04935 367.04721 371.0451 372.82022 375.04303 379.04089 383.03879 387.03665 391.03452 396.80746 401.25308 405.25098 409.24884 413.69449 420.35474 422.57755 427.02319 428.79825 433.2439 435.90646 440.35211 446.12503 450.12292 456.78339"
     y="-34.950871"
     sodipodi:role="line"
     id="tspan689">kartki wg. kolejnosci zszywaczem biurowym.</tspan><tspan
     y="-19.950871"
     x="301.73001"
     style="font-variant:normal;font-weight:normal;font-size:7.99575px;font-family:Helvetica;-inkscape-font-specification:Helvetica;writing-mode:lr-tb;fill:#231f20;fill-opacity:1;fill-rule:nonzero;stroke:none"
     sodipodi:role="line"
     id="tspan691">4. Otrzymałeś gotowy loogbook.</tspan><tspan
     id="tspan47826"
     y="-4.9508705"
     x="301.73001"
     style="font-variant:normal;font-weight:normal;font-size:7.99575px;font-family:Helvetica;-inkscape-font-specification:Helvetica;writing-mode:lr-tb;fill:#231f20;fill-opacity:1;fill-rule:nonzero;stroke:none"
     sodipodi:role="line">5. Jeśli potrzebujesz więcej wpisów powiel strony N5 i N6.</tspan><tspan
     id="tspan47824"
     style="font-variant:normal;font-weight:normal;font-size:7.99575px;font-family:Helvetica;-inkscape-font-specification:Helvetica;writing-mode:lr-tb;fill:#231f20;fill-opacity:1;fill-rule:nonzero;stroke:none"
     x="301.73001 306.17563 308.39847 310.62128 316.84198 319.06479 321.72739 325.72525 329.72311 336.38358 340.82922 342.60428 347.04993 351.04782 353.27063 357.71628 362.16193 364.38474 368.83038 374.6033 378.60095 380.82376 382.59882 387.04446 391.49011 395.93573 400.38138 404.827 409.27264 413.27051"
     y="-24.956181"
     sodipodi:role="line" /></text>













<path
   id="path349"
   style="fill:none;stroke:#231f20;stroke-width:0.499734;stroke-linecap:butt;stroke-linejoin:miter;stroke-miterlimit:4;stroke-dasharray:none;stroke-opacity:1"
   d="m 82.41144,421.29 h 214.8192 z"
   sodipodi:nodetypes="ccc" /><text
   id="text343"
   transform="matrix(0,-1,-1,0,0,0)"
   x="-350.66824"
   y="-125.75775"><tspan
     id="tspan345"
     sodipodi:role="line"
     style="font-variant:normal;font-weight:500;font-size:15.9915px;font-family:BankGothicBT;-inkscape-font-specification:BankGothicBT-Medium;writing-mode:lr-tb;fill:#231f20;fill-opacity:1;fill-rule:nonzero;stroke:none"
     x="-350.66824"
     y="-125.75775" /><tspan
     id="tspan347"
     sodipodi:role="line"
     y="-104.76895"
     x="-355.84842 -343.23111 -330.6138 -317.99649 -312.70334 -301.26938 -291.22672 -281.50388 -270.11795 -260.10727 -249.77675 -239.47823 -227.99632 -223.34282 -211.95686 -200.89073 -195.59755 -185.55489"
     style="font-variant:normal;font-weight:500;font-size:15.9915px;font-family:BankGothicBT;-inkscape-font-specification:BankGothicBT-Medium;writing-mode:lr-tb;fill:#231f20;fill-opacity:1;fill-rule:nonzero;stroke:none">www.opencaching.pl</tspan></text><text
   style="font-size:15.578px"
   y="-234.83136"
   x="-346.81607"
   transform="matrix(0,-1,-1,0,0,0)"
   id="text405"><tspan
     style="font-variant:normal;font-weight:bold;font-size:31.1394px;font-family:FrutigerPl65;-inkscape-font-specification:FrutigerPl65-Bold;writing-mode:lr-tb;fill:#231f20;fill-opacity:1;fill-rule:nonzero;stroke:none"
     x="-346.81607 -331.24637 -307.0199 -284.53723 -265.51108 -241.28461 -217.05814"
     y="-234.83136"
     sodipodi:role="line"
     id="tspan407">LOGBOOK</tspan></text>









<text
   style="font-size:15.578px;text-align:center;text-anchor:middle"
   y="-207.23888"
   x="-272.30551"
   transform="matrix(0,-1,-1,0,0,0)"
   id="text409"><tspan
     y="-207.23888"
     x="-272.30551"
     style="font-variant:normal;font-weight:normal;font-size:15.5697px;font-family:Helvetica;-inkscape-font-specification:Helvetica;text-align:center;writing-mode:lr-tb;text-anchor:middle;fill:#231f20;fill-opacity:1;fill-rule:nonzero;stroke:none"
     sodipodi:role="line"
     id="tspan413">GEOCACHE</tspan><tspan
     id="tspan10983"
     y="-187.58894"
     x="-272.30551"
     style="font-variant:normal;font-weight:normal;font-size:15.5697px;font-family:Helvetica;-inkscape-font-specification:Helvetica;text-align:center;writing-mode:lr-tb;text-anchor:middle;fill:#231f20;fill-opacity:1;fill-rule:nonzero;stroke:none"
     sodipodi:role="line" /></text>









<text
   transform="matrix(0,-1,-1,0,0,0)"
   id="text415"
   x="-367.5925"
   y="-157.93507"
   style="font-size:15.578px"><tspan
     style="font-variant:normal;font-weight:normal;font-size:15.5697px;font-family:Helvetica;-inkscape-font-specification:Helvetica;writing-mode:lr-tb;fill:#231f20;fill-opacity:1;fill-rule:nonzero;stroke:none"
     x="-367.5925 -352.89468 -345.10983 -336.45309 -327.79633 -324.33984 -319.15512 -311.37027 -302.7135 -294.05676 -285.39999 -276.74289 -272.41452 -263.75775 -255.101 -246.44424 -237.78749 -232.60277 -223.94601 -216.16116 -208.3763 -200.59145 -191.93469 -183.27792"
     y="-157.93507"
     sodipodi:role="line"
     id="tspan417">Współrzędne geograﬁczne:</tspan></text>









<text
   transform="matrix(0,-1,-1,0,0,0)"
   id="text419"
   x="-392.05362"
   y="-133.28287"
   style="font-size:15.578px"><tspan
     style="font-variant:normal;font-weight:normal;font-size:15.5697px;font-family:Helvetica;-inkscape-font-specification:Helvetica;writing-mode:lr-tb;fill:#231f20;fill-opacity:1;fill-rule:nonzero;stroke:none"
     x="-357.55115 -353.23834 -348.92548 -344.61267 -340.29987 -335.98706 -331.67426 -327.36145 -323.04858 -318.73578 -314.423 -310.1102 -305.79736 -301.48456 -297.17169 -292.85892 -288.54611 -284.23331 -279.9205 -275.6076 -271.29489 -266.98196 -262.66919 -258.35645 -254.04358 -249.73076 -245.41798 -241.10516 -236.79236 -232.47958 -228.16676 -223.85391 -219.54115 -215.22829 -210.91548 -206.60269 -202.28989 -197.97708 -193.66429 -189.3515 -185.03868 -180.72589 -176.4131 -172.09979 -167.78699 -163.47421 -159.16141"
     sodipodi:role="line"
     id="tspan2603" /></text>









<path
   id="path45"
   style="fill:none;stroke:#231f20;stroke-width:0.499734;stroke-linecap:butt;stroke-linejoin:miter;stroke-miterlimit:4;stroke-dasharray:2.02392, 2.02392;stroke-dashoffset:0;stroke-opacity:1"
   d="M 67.14516,124.0704 H 24.64776" /><text
   id="text71"
   transform="matrix(0,-1,-1,0,0,0)"
   x="-699.17609"
   y="-264.11978"
   style="font-size:16.8538px;stroke-width:1.40448"><tspan
     id="tspan73"
     sodipodi:role="line"
     y="-264.11978"
     x="-699.17609 -690.05463 -683.03033 -672.50653 -669.70184 -662.67755 -658.47058 -652.15375 -648.6416 -645.12946 -641.61731 -635.30054 -628.27625 -621.25195 -617.73981 -610.71552 -604.39868 -600.88654"
     style="font-variant:normal;font-weight:normal;font-size:12.6336px;font-family:Helvetica;-inkscape-font-specification:Helvetica;writing-mode:lr-tb;fill:#231f20;fill-opacity:1;fill-rule:nonzero;stroke:none;stroke-width:1.40448">Namiary / contact:</tspan><tspan
     id="tspan75"
     sodipodi:role="line"
     y="-243.06381"
     x="-699.17609 -694.75433 -667.33923 -660.31494 -657.51031 -651.19348 -644.87665"
     style="font-variant:normal;font-weight:normal;font-size:12.6336px;font-family:Helvetica;-inkscape-font-specification:Helvetica;writing-mode:lr-tb;fill:#231f20;fill-opacity:1;fill-rule:nonzero;stroke:none;stroke-width:1.40448">• nick: <tspan
   xml:id="nick"
   id="tspan5310"
   style="stroke-width:1.40448">%NICK%</tspan></tspan><tspan
     id="tspan77"
     sodipodi:role="line"
     y="-222.00783"
     x="-699.17609 -694.75433 -667.33923 -660.31494 -656.10797 -645.58417 -638.55988 -635.75519 -632.9505"
     style="font-variant:normal;font-weight:normal;font-size:12.6336px;font-family:Helvetica;-inkscape-font-specification:Helvetica;writing-mode:lr-tb;fill:#231f20;fill-opacity:1;fill-rule:nonzero;stroke:none;stroke-width:1.40448">• e-mail: <tspan
   xml:id="email"
   id="tspan5313"
   style="stroke-width:1.40448">%EMAIL%</tspan></tspan></text><text
   id="text79"
   transform="matrix(0,-1,-1,0,0,0)"
   x="-699.17609"
   y="-200.95184"
   style="font-size:16.8538px;stroke-width:1.40448"><tspan
     id="tspan81"
     sodipodi:role="line"
     style="font-variant:normal;font-weight:normal;font-size:12.6336px;font-family:Helvetica;-inkscape-font-specification:Helvetica;writing-mode:lr-tb;fill:#231f20;fill-opacity:1;fill-rule:nonzero;stroke:none;stroke-width:1.40448"
     x="-699.17609 -694.75433 -667.33936 -661.02258 -654.70575 -650.49878 -644.18195 -637.86511 -630.84082 -624.52405 -617.50043 -613.98828 -606.96393 -599.93964 -596.42749 -589.4032 -580.28174 -573.25745 -566.23315 -559.20886 -555.69672 -552.18457 -545.16028 -538.84344 -532.52667 -525.50214 -521.98999 -514.9657 -507.94144"
     y="-200.95184">• skrzynka notowana także na </tspan></text><text
   id="text83"
   transform="matrix(0,-1,-1,0,0,0)"
   x="-667.33948"
   y="-179.89587"
   style="font-size:16.8538px;stroke-width:1.40448"><tspan
     id="tspan85"
     sodipodi:role="line"
     y="-179.89587"
     x="-667.33948 -658.21802 -649.09656 -639.9751 -636.46295 -629.43866 -622.41437 -616.09753 -609.07324 -602.04895 -591.52515 -584.50085 -578.18408 -574.67194 -567.64764 -563.44061 -556.41632 -547.57275 -544.76813 -537.74384 -530.71954 -527.2074 -523.69525 -520.18311 -517.37842"
     style="font-variant:normal;font-weight:normal;font-size:12.6336px;font-family:Helvetica;-inkscape-font-specification:Helvetica;writing-mode:lr-tb;fill:#231f20;fill-opacity:1;fill-rule:nonzero;stroke:none;stroke-width:1.40448">www.gpsgames.org lub / i </tspan><tspan
     id="tspan87"
     sodipodi:role="line"
     y="-158.83989"
     x="-667.33948 -658.21802 -649.09656 -639.9751 -636.46295 -629.43866 -622.41437 -615.39008 -609.07324 -602.04895 -595.73218 -588.70789 -585.9032 -578.87891 -571.85461 -568.34247 -562.0257 -555.0014 -544.47754 -540.96539"
     style="font-variant:normal;font-weight:normal;font-size:12.6336px;font-family:Helvetica;-inkscape-font-specification:Helvetica;writing-mode:lr-tb;fill:#231f20;fill-opacity:1;fill-rule:nonzero;stroke:none;stroke-width:1.40448">www.geocaching.com *</tspan></text><text
   id="text89"
   transform="matrix(0,-1,-1,0,0,0)"
   x="-699.17609"
   y="-131.21291"
   style="font-size:16.8538px;stroke-width:1.40448"><tspan
     id="tspan91"
     sodipodi:role="line"
     y="-131.21291"
     x="-699.17609 -695.3537 -692.0816 -686.61829 -684.43689 -678.97351 -673.51019 -668.04688 -665.31519 -662.04309 -657.13 -651.66669 -646.20337 -640.73999 -635.27716 -632.54547 -627.63239 -622.71936 -619.4472 -613.98389 -609.0708 -606.8894 -604.70801 -599.79492"
     style="font-variant:normal;font-weight:normal;font-size:9.82614px;font-family:Helvetica;-inkscape-font-specification:Helvetica;writing-mode:lr-tb;fill:#231f20;fill-opacity:1;fill-rule:nonzero;stroke:none;stroke-width:1.40448">*(niepotrzebne skreślić)</tspan></text><path
   id="path93"
   style="fill:#231f20;fill-opacity:1;fill-rule:nonzero;stroke:none"
   d="m 141.56225,698.47429 v -255.6448 h 1.19292 v 255.6448 z" /><g
   id="g14052"
   transform="matrix(0,-1.4131465,1.4131465,0,-188.34881,1190.0391)"><path
     d="m 369.18412,469.73651 -1.266,-1.0668 -0.564,-0.4608 -0.57516,3.1176 2.87316,-1.122 -0.0204,-0.1728 z m -5.66868,4.8036 v -0.534 l 0.0671,-0.5988 0.39984,-4.1376 1.60128,0.2004 c 0.82728,0.1344 1.49568,-6.1152 1.73448,-7.1388 1.7004,1.9584 2.9628,3.348 5.1336,4.872 1.7436,1.2228 4.4196,2.6448 6.804,3.2016 -0.648,0.5628 -4.9932,2.292 -6.156,2.7144 -2.1564,0.7824 -4.428,1.6212 -7.3164,1.6212 l -0.26856,0.0228"
     style="fill:#ede815;fill-opacity:1;fill-rule:evenodd;stroke:none"
     id="path95" /><path
     d="m 362.71492,462.06491 c 0,1.5828 -1.71516,2.0316 1.13436,2.2692 z m -6.40272,1.2684 4.63176,-3.9012 -0.2958,-0.3024 -6.7374,-5.9484 0.86724,-0.1224 2.40096,-0.3336 6.00276,1.4016 c 0.0637,0.7668 0.9084,2.772 1.2234,3.4464 0.53496,1.1448 1.09836,1.9896 1.64496,3.024 -0.0188,0.228 -1.16916,2.952 -1.35516,3.3804 -0.18984,0.4356 -0.50772,1.26 -0.6198,1.716 -0.12888,0.5292 -0.30468,1.5168 -0.4926,1.9092 l -7.98468,-3.588"
     style="fill:#ede815;fill-opacity:1;fill-rule:evenodd;stroke:none"
     id="path97" /><path
     d="m 350.91028,439.24931 c 0.33804,-0.2256 1.13352,-1.2336 1.5174,-1.6176 0.53856,-0.5388 1.07112,-1.0068 1.59984,-1.5348 0.8334,-0.8316 2.5908,-2.0724 3.70824,-2.6292 1.47516,-0.732 7.62288,-3.2244 9.44796,-3.2244 l 2.4684,-0.2676 4.2684,0.1344 c 0.978,0 2.3376,0.2016 3.2544,0.348 0.7092,0.1128 2.4504,0.6408 2.9484,0.6516 l 3.0684,1.4016 c 0.4668,0.4068 1.1532,0.7392 1.6524,1.2168 0.516,0.492 0.9588,0.9648 1.4652,1.4688 0.7524,0.7464 2.064,2.3328 2.6328,3.2376 0.7512,1.1952 1.5156,2.4432 1.9788,3.8916 0.3948,1.2324 0.9744,3.3408 1.0068,4.8624 l 0.084,1.2672 -0.0168,1.9344 c 0,1.806 -0.204,3.42 -0.5052,4.9656 -0.3048,1.5624 -0.7728,2.9232 -1.0944,4.308 -0.1296,0.2424 -0.3924,1.0668 -0.6672,1.0668 h -0.4008 c -1.6404,0 -3.7404,-0.4968 -5.262,-0.7404 -1.6872,-0.27 -3.3564,-0.6504 -4.9812,-1.0212 -1.5696,-0.3588 -3.3456,-0.7464 -4.764,-1.2396 -0.7476,-0.2604 -1.5492,-0.4692 -2.2764,-0.7248 -0.4068,-0.1428 -1.8624,-0.7884 -2.1252,-0.81 -0.1128,-0.0984 -0.1152,-0.1332 -0.3336,-0.1332 -0.2436,0 -1.6752,3.798 -1.8,4.3368 l -0.4668,1.9332 c -0.2388,1.0236 -0.9072,7.2732 -1.73448,7.1388 l -1.60128,-0.2004 -0.77484,-0.0756 0.375,-1.5912 c 0.18792,-0.3924 0.36372,-1.38 0.4926,-1.9092 0.11208,-0.456 0.42996,-1.2804 0.6198,-1.716 0.186,-0.4284 1.33632,-3.1524 1.35516,-3.3804 l 0.53388,-1.2012 c 0.30276,-0.5712 0.51936,-1.2456 0.75336,-1.914 0.1992,-0.5664 0.6804,-1.5144 0.7812,-1.8876 -0.438,-0.102 -1.14792,-0.4668 -1.76244,-0.6396 -0.47292,-0.1344 -1.37952,-0.456 -1.84032,-0.4944 l -1.33404,-0.3336 -6.00276,-1.4016 -2.00016,-0.6672 c -0.90048,-0.57 -2.51532,-0.8628 -3.20208,-1.8012 0.56484,-0.8436 0.97548,-2.3292 1.86804,-2.8008 2.5884,0 3.76068,1.5636 5.46888,2.4672 0.76776,0.6672 2.27112,1.7388 3.40128,2.0028 0.79968,0.4212 2.28468,0.906 3.22212,1.2468 0.5358,0.1932 1.13868,0.4668 1.64748,0.6204 0.9192,0.276 0.8376,0.2772 1.2672,-0.534 l 0.2664,-0.6 c 0.3792,-0.2784 1.0548,-2.5296 1.2744,-3.1956 0.3708,-1.1232 0.5532,-2.3724 0.846,-3.5568 0.318,-1.29 1.4652,-6.288 2.3484,-6.5232 0.3864,0.336 1.4676,0.6252 1.4676,1.266 v 0.2676 c 0,1.9032 -1.098,5.7432 -1.6284,7.3104 -0.3252,0.9588 -0.9468,2.1792 -1.3968,3.0744 -0.5112,1.0224 -0.9864,2.0352 -1.5108,3.0252 0.4332,0.816 6.5772,2.076 8.2044,2.0688 1.7112,-0.008 3.4236,-0.001 5.136,-0.001 1.6704,0 3.2568,0.2664 4.8684,0.2664 h 0.3336 c 0.2976,0 0.3336,-0.8844 0.3336,-1.2012 0,-0.618 0.1332,-0.9852 0.1332,-1.734 0,-0.6948 0.0672,-1.1316 0.0672,-1.8 -10e-4,-1.2084 -0.1248,-2.46 -0.2016,-3.5364 -0.1272,-1.8204 -0.8076,-4.758 -1.4664,-6.0036 -0.402,-1.7268 -2.8032,-4.926 -3.984,-6.0228 -0.8844,-0.822 -1.6824,-1.6044 -2.7744,-2.2284 -0.8112,-0.4656 -2.4504,-1.4736 -3.3792,-1.6896 l -0.8016,-0.2004 -0.3324,-0.0672 -4.068,-0.6672 -1.4676,-0.066 c -2.064,0 -2.898,0.0852 -4.53576,0.4668 -1.13436,0.264 -3.99192,1.3464 -4.66884,1.9344 l -1.73484,1.0008 -0.4668,0.2664 -5.0682,3.0024 c -1.476,0.9888 -2.055,1.6872 -3.08148,3.1224 -0.54144,0.7584 -1.89804,3.1896 -2.1216,4.1496 -0.495,0.7116 -1.40064,5.2716 -1.40064,6.6708 v 3.0024 c 0,2.3388 1.03872,5.2236 1.61352,7.1256 0.66648,2.202 1.82004,3.9912 3.08196,5.6568 1.17144,1.5444 2.79192,3.2544 4.48596,4.2528 1.35144,0.7944 4.28952,2.4444 6.29244,2.4444 l 1.99932,0.2232 0.26856,-0.0228 c 2.8884,0 5.16,-0.8388 7.3164,-1.6212 1.1628,-0.4224 5.508,-2.1516 6.156,-2.7144 l 0.8676,-0.4668 c 0.3204,-0.0756 2.0604,-1.2396 2.3184,-1.4844 0.5544,-0.5268 1.3944,-1.3128 1.7496,-1.9848 l 1.734,-2.4684 0.3336,0.1332 c 0.666,0.4632 3.0012,0.9072 3.0012,1.9344 v 0.2004 c 0,0.2676 -0.1392,0.6084 -0.1992,0.8664 -0.1392,0.5976 -0.9912,1.608 -1.392,2.01 -0.3876,0.3876 -1.6092,1.2528 -1.8096,1.5264 -0.4404,0.2328 -0.9168,0.5712 -1.3452,0.8544 -0.4476,0.2964 -0.9492,0.5136 -1.4028,0.8004 -0.702,0.4428 -2.1192,1.182 -2.9124,1.4892 -1.7412,0.6768 -4.5024,1.9452 -6.6792,2.1264 l -2.8668,0.2664 h -5.5362 c -7.10628,0 -10.27968,-3.4344 -13.20612,-7.6056 -1.22712,-1.7508 -3.05244,-4.4796 -3.79164,-6.6132 -0.4458,-1.284 -0.99288,-2.3856 -1.31772,-3.8856 -0.27276,-1.2624 -0.76032,-3.0108 -0.76032,-4.4448 v -2.0676 c 0,-1.6524 1.0224,-5.9784 1.5882,-7.0176 0.54744,-1.0044 0.81936,-1.836 1.46616,-2.802 0.2316,-0.3456 1.79016,-2.454 1.815,-2.5224"
     style="fill:#252122;fill-opacity:1;fill-rule:evenodd;stroke:none"
     id="path99" /><path
     d="m 391.77772,440.73131 0.6828,-1.2336 -1.548,0.1656 z m -8.1192,35.0748 0.8112,-1.3932 -2.7072,0.0348 z m -10.1388,0.1356 c 2.1768,-0.1812 4.938,-1.4496 6.6792,-2.1264 0.7932,-0.3072 2.2104,-1.0464 2.9124,-1.4892 0.4536,-0.2868 0.9552,-0.504 1.4028,-0.8004 0.4284,-0.2832 0.9048,-0.6216 1.3452,-0.8544 1.5324,-0.0336 3.786,-1.3488 4.7892,-2.0136 0.7992,-0.5304 2.9316,-2.6604 3.1476,-3.5904 0.948,-1.0896 1.668,-4.4208 1.668,-6.6048 v -0.3336 c 0,-3.5184 -1.4112,-7.7292 -2.8008,-9.8064 l -0.7356,-1.134 c -0.0324,-1.5216 -0.612,-3.63 -1.0068,-4.8624 -0.4632,-1.4484 -1.2276,-2.6964 -1.9788,-3.8916 -0.5688,-0.9048 -1.8804,-2.4912 -2.6328,-3.2376 -0.5064,-0.504 -0.9492,-0.9768 -1.4652,-1.4688 -0.4992,-0.4776 -1.1856,-0.81 -1.6524,-1.2168 l 4.5888,-2.466 0.8136,6.8028 0.534,-0.006 8.4372,0.4932 -2.8404,4.878 6.5412,-0.8952 0.2148,0.01 -3.6828,5.5944 -0.7908,1.14 7.4604,4.3968 0.3336,0.3324 -4.4016,2.736 -0.9792,0.5676 5.448,3.0348 0.6864,0.3936 -3.6876,1.2744 -0.4668,0.1344 -1.062,0.348 3.5952,3.8544 0.4008,0.3996 0.2028,0.2856 -6.0048,0.7164 -0.3348,0.066 -1.2036,0.0924 3.9384,5.3784 0.4008,0.534 0.5316,0.804 -6.9348,-2.0736 -0.3336,-0.132 -0.9288,-0.2856 1.3296,5.2884 0.1992,0.8004 0.1776,0.9024 -6.114,-4.104 -0.3936,-0.276 -3.7404,6.2796 -0.5028,0.8472 -0.024,0.0792 -5.1432,-5.1948 -0.5844,-0.6168 -2.016,5.7528 -0.3768,1.0236"
     style="fill:#ede815;fill-opacity:1;fill-rule:evenodd;stroke:none"
     id="path101" /><path
     d="m 368.89372,435.17771 c 0.54,-0.01 1.0776,0.0204 0.7428,-0.4476 -0.1584,-0.2184 -0.4368,-0.7752 -0.5856,-0.8844 z m -9.58008,14.7456 c 0,-0.6288 -0.24468,-1.296 -0.60048,-1.5336 l -4.82772,-7.4556 0.95964,0.1164 5.736,0.8652 -0.13404,-0.9312 -0.73356,-5.8716 0.4668,-0.2664 5.12352,1.254 0.27984,-0.9876 1.00032,-3.2016 c 1.63776,-0.3816 2.47176,-0.4668 4.53576,-0.4668 l 0.792,0.8604 0.6756,-0.7944 4.068,0.6672 -1.4916,1.7136 2.7588,-0.0396 -0.1332,-1.3404 v -0.066 c 0.9288,0.216 2.568,1.224 3.3792,1.6896 1.092,0.624 1.89,1.4064 2.7744,2.2284 1.1808,1.0968 3.582,4.296 3.984,6.0228 -0.612,-0.4104 -1.3152,-1.0848 -1.9596,-1.5756 -0.6888,-0.5232 -1.3896,-0.9384 -2.154,-1.3824 -1.4892,-0.8652 -3.114,-1.6296 -4.9836,-2.0868 -1.5624,-0.3828 -4.5708,-0.8112 -6.324,-0.3744 -0.9312,0.2328 -2.0292,0.3744 -2.7864,0.7488 -0.4788,0.2364 -1.9536,0.9288 -2.202,1.2672 -1.53528,0.8124 -2.95656,2.8452 -3.73512,4.47 -0.51936,0.5976 -1.26708,3.8676 -1.26708,5.136 v 1.7352 l 0.1998,1.602 c -1.13016,-0.264 -2.63352,-1.3356 -3.40128,-2.0028"
     style="fill:#ede815;fill-opacity:1;fill-rule:evenodd;stroke:none"
     id="path103" /><path
     d="m 373.92052,430.11011 4.95,-5.3856 1.2528,6.3852 c -0.498,-0.0108 -2.2392,-0.5388 -2.9484,-0.6516 -0.9168,-0.1464 -2.2764,-0.348 -3.2544,-0.348"
     style="fill:#ede815;fill-opacity:1;fill-rule:evenodd;stroke:none"
     id="path105" /><path
     d="m 367.38412,429.50891 0.4668,-1.4676 0.1236,0.004 0.0768,0.1296 1.6008,1.8012 -2.4684,0.2676"
     style="fill:#ede515;fill-opacity:1;fill-rule:evenodd;stroke:none"
     id="path107" /><path
     d="m 388.32772,427.17491 c 0,-0.1548 -0.0468,-0.2004 -0.2004,-0.2004 -0.4452,0 -0.8676,0.342 -0.8676,0.8676 0.3276,-0.008 1.068,-0.0864 1.068,-0.4008 z m -1.1352,2.4012 c 0.0168,-0.6984 0.402,-0.3708 0.5328,-0.8808 l -1.0656,0.0804 c -0.7008,0.0624 -0.7848,-0.5496 -0.6816,-1.0152 0.1572,-0.7128 0.4488,-0.738 0.7476,-1.1868 0.3504,-0.234 0.852,-0.666 1.4016,-0.666 h 0.3336 c 0.6024,0 1.0668,0.4644 1.0668,1.0668 v 0.0672 c 0,0.5052 -0.1044,0.996 -0.2676,1.3344 l -0.9996,1.3344 c -0.1608,0.0768 -0.2916,0.1332 -0.534,0.1332 h -0.1992 c -0.1908,0 -0.234,-0.1512 -0.3348,-0.2676"
     style="fill:#252122;fill-opacity:1;fill-rule:evenodd;stroke:none"
     id="path109" /><path
     d="m 395.59732,427.04171 c 0,0.696 0.2916,1.1472 0.9336,1.2 0.0648,-0.2424 0.2664,-0.3684 0.2664,-0.534 v -0.4656 c 0,-0.7884 -0.2052,-1.1208 -0.3336,-1.6692 -0.3072,0.072 -0.8664,0.6948 -0.8664,0.9348 z m -0.9336,-1.2012 c 0.2568,-0.2976 0.3,-0.4908 0.648,-0.7524 0.396,-0.3 0.5532,-0.3036 0.8856,-0.5148 1.6272,0 1.1508,1.2636 1.6284,2.238 l 1.3068,-1.038 1.0008,-1.068 c 0.18,-0.3408 0.3996,-0.7476 0.3996,-1.2672 v -0.3996 c 0,-0.7512 -1.0128,-1.4688 -1.734,-1.4688 h -0.2004 c -0.4656,0 -1.1472,0.0228 -1.5624,0.1056 -0.282,0.0552 -0.5448,0.048 -0.6288,0.2376 -0.084,0.1884 -0.1164,0.5244 -0.3432,0.5244 -0.2304,0 -0.6,-0.5316 -0.6,-0.8004 v -0.1992 c 0,-0.4776 0.3468,-0.4476 0.6,-0.6672 l 1.134,-0.1332 h 0.4668 c 2.25,0 3.936,0.528 3.936,2.7348 v 0.066 c 0,1.11 -0.804,2.2536 -1.3836,2.8212 -0.5412,0.528 -1.9356,1.4604 -2.286,1.9824 -0.0936,0.1404 -0.4728,0.6012 -0.6672,0.6012 h -0.5328 c -0.0468,0.1992 -0.198,0.4668 -0.3996,0.4668 -0.678,0 -1.314,-0.7152 -1.536,-1.2 -0.4032,-0.8784 -0.3552,-1.3092 -0.132,-2.2692"
     style="fill:#272324;fill-opacity:1;fill-rule:evenodd;stroke:none"
     id="path111" /><path
     d="m 354.37864,424.17251 h -0.20112 c -0.0802,0.1212 -0.53244,0.5472 -0.53244,0.6 0,0.6072 1.31484,2.202 1.86648,2.202 h 0.13404 c 0.31416,0 0.345,-0.7044 0.20016,-0.9348 0,-0.9216 -0.51372,-1.8672 -1.46712,-1.8672 m -6.53676,2.3352 -0.73356,0.3336 c -0.375,0.2508 -0.66756,0.708 -0.66756,1.3332 v 0.6012 c 0,1.0056 0.86016,2.6856 1.35,3.252 0.37692,0.4356 0.69984,0.8196 1.22868,1.1064 0.33744,0.1836 1.23792,0.5772 1.68984,0.5772 h 0.4008 l 0.26712,-0.666 c 0.66048,-0.4428 0.42936,-0.1584 1.16532,-0.3684 0.3684,-0.1056 0.39192,-0.8508 0.23484,-1.0992 0,-1.254 -1.01952,-2.6544 -1.6842,-3.3192 -0.79968,-0.8004 -1.68804,-1.7508 -3.25128,-1.7508 m -1.60128,-0.468 c 0.264,-0.0696 0.62952,-0.4572 1.05756,-0.6096 0.37872,-0.1344 0.8784,-0.1908 1.41048,-0.1908 0.61452,0 1.62792,0.5532 2.0418,0.828 0.60048,0.3996 1.02432,0.9936 1.49304,1.3068 l -0.13272,-2.0676 c 0,-0.5352 -0.50904,-2.496 -0.675,-2.994 -0.20148,-0.6096 -0.59244,-2.3028 -0.59244,-3.0768 v -0.0672 c 0,-0.4812 0.23904,-0.8688 0.53388,-1.0668 l 0.33288,-0.066 c 0.5634,0.4896 0.86148,5.226 1.46808,5.67 0.32676,-0.2196 0.92244,-0.8676 1.40016,-0.8676 h 0.6666 c 0.82968,0 1.80084,2.0016 1.80084,3.0696 v 0.2664 c 0,0.4728 -0.17664,0.7488 -0.26664,1.134 -0.189,0.2172 -0.70452,0.9336 -1.0674,0.9336 h -0.4668 c -0.30384,0 -0.66048,-0.3204 -1.00032,-0.3996 l -0.75192,-0.7212 -0.0487,0.054 v 0.1992 c 0,0.42 -0.34788,0.5688 -0.73368,0.6012 0.068,0.252 0.62964,1.1532 0.8016,1.5996 0.16404,0.4248 0.39984,1.356 0.39984,1.9356 v 0.9348 c 0,1.218 -0.98244,1.3752 -1.4016,2.0016 -0.41856,0.306 -0.80004,0.8004 -1.59984,0.8004 h -0.26664 c -1.35564,0 -2.99952,-1.422 -3.68628,-2.184 -0.8166,-0.906 -1.58292,-2.6604 -1.58292,-4.3548 v -0.3996 c 0,-1.1568 0.4134,-1.5924 0.86616,-2.2692"
     style="fill:#252122;fill-opacity:1;fill-rule:evenodd;stroke:none"
     id="path113" /><path
     d="m 358.31332,423.43811 c 0.082,0.3096 0.4008,0.8004 0.80064,0.8004 h 0.13308 c 0.31548,0 0.26676,-0.1284 0.5334,-0.1992 v -0.2004 c 0,-0.2748 -0.5784,-0.5328 -0.86664,-0.5328 -0.16692,0 -0.43872,0.0948 -0.60048,0.132 m -0.53388,1.1352 -0.86628,-1.7352 -0.0671,-1.2012 c 0.28968,-1.2432 0.51288,-1.1724 1.0674,-2.0004 0.435,-0.2916 0.95244,-0.6684 1.66728,-0.6684 h 0.53352 c 0.50904,0 0.86148,0.162 1.06728,0.468 v 0.2664 c -0.46644,0.882 -1.39596,-0.0204 -2.13468,0.3336 -0.72276,0.06 -1.33404,0.948 -1.33404,1.734 0,0.492 0.0745,1.0296 0.46728,1.1352 0.0661,-0.2496 0.32916,-0.6012 0.66708,-0.6012 h 0.5334 c 0.61176,0 1.26756,0.6 1.26756,1.2684 v 0.2004 c 0,0.294 -0.0989,0.474 -0.20112,0.666 -0.26064,0.3912 -0.87564,0.8004 -1.53324,0.8004 h -0.0666 c -0.47904,0 -0.78192,-0.4752 -1.06776,-0.666"
     style="fill:#272324;fill-opacity:1;fill-rule:evenodd;stroke:none"
     id="path115" /><path
     d="m 390.52852,427.04171 -0.3336,-0.468 c -0.204,-0.876 -0.4008,-0.6924 -0.4008,-2.0676 l 0.4668,-1.734 c 0.4872,-0.5616 1.0632,-1.9356 2.0676,-1.9356 h 0.0672 c 0.2244,0 0.4668,0.1188 0.4668,0.3348 v 0.1992 c 0,0.2136 -0.636,0.5556 -0.8004,0.8004 -0.3852,0.1032 -0.8376,0.8388 -1.0008,1.2012 -0.3168,0.7008 -0.2292,0.9948 -0.198,1.8 0.0684,1.8372 1.644,1.7736 1.9332,0.5352 l 0.1992,-0.2676 c 0.0984,-0.4188 0.3372,-0.888 0.4416,-1.4268 0.1344,-0.69 0.0852,-0.888 0.6264,-1.1748 l 0.3972,-0.0816 c 0.1248,0.198 0.2028,0.3732 0.2028,0.6816 0,1.008 -0.768,2.4456 -1.134,3.1356 -0.2616,0.3024 -0.8832,1.002 -1.4004,1.002 h -0.4008 c -0.522,0 -0.8796,-0.3192 -1.2,-0.534"
     style="fill:#272324;fill-opacity:1;fill-rule:evenodd;stroke:none"
     id="path117" /><path
     d="m 389.66092,419.30291 0.4656,-0.0816 c 0.198,0.1452 0.402,0.4404 0.402,0.7476 v 0.2676 c 0,0.1656 -0.2232,0.3216 -0.2964,0.5712 -0.0612,0.2076 -0.0732,0.4404 -0.1308,0.6696 -0.114,0.4548 -0.2664,0.8004 -0.3072,1.2948 -0.1536,0.222 -0.306,0.666 -0.666,0.666 -0.2784,0 -0.7332,-0.2028 -0.7332,-0.4668 0,-0.1356 0.3924,-1.7268 0.4644,-2.0028 0.198,-0.7524 0.1824,-1.338 0.8016,-1.6656"
     style="fill:#272324;fill-opacity:1;fill-rule:evenodd;stroke:none"
     id="path119" /><path
     d="m 361.64848,419.90291 0.33276,-1.2012 0.66804,-0.7332 c 0.24564,0 0.46632,-0.0588 0.46632,0.1992 0,0.756 -0.66744,1.6236 -0.66744,2.6688 v 0.0672 l 0.074,0.7992 c 0.30984,0.474 0.6324,1.7352 1.46016,1.7352 h 0.20064 c 0.52776,0 0.79968,-0.7272 0.79968,-1.2672 0,-1.5204 -0.19872,-1.854 -0.46692,-3.0024 l 0.534,-0.8664 h 0.19968 c 0.45792,0.6828 0.73404,1.74 0.73404,2.8692 v 0.3984 c 0,0.7236 -0.26208,1.2768 -0.39984,1.8684 -0.41676,0.306 -0.62064,1.068 -1.6674,1.068 h -0.13404 c -1.29324,0 -2.2008,-1.7652 -2.2008,-3.1356 v -0.4668"
     style="fill:#272324;fill-opacity:1;fill-rule:evenodd;stroke:none"
     id="path121" /><path
     d="m 382.85812,419.36891 0.3996,-0.2676 h 0.2676 c 0.318,0.4752 0.312,1.602 1.0668,1.602 0.4464,0 0.96,-0.4032 1.134,-0.7344 l 0.3336,-0.8676 c 0.144,-0.6168 0.0444,-0.5664 0.4668,-0.9336 0.2328,-0.054 0.2244,-0.132 0.4668,-0.132 0.2568,0 0.4668,0.4872 0.4668,0.7332 v 0.1332 c 0,1.038 -0.6888,1.5696 -1.0668,2.1348 -0.666,0.4464 -1.0068,0.9096 -2.1348,0.9336 -0.0852,-0.054 -0.5352,-0.2004 -0.666,-0.2004 -0.3612,0 -0.5292,2.2968 -0.6264,2.7768 -0.09,0.444 -0.1884,0.9924 -0.2916,1.3764 -0.114,0.42 -0.3192,0.8292 -0.4164,1.2516 -0.1752,0.2016 -0.4656,0.7332 -0.8016,0.7332 -0.3432,0 -0.5448,-0.1704 -0.666,-0.3996 0.3228,-0.6108 0.8952,-3.1404 1.0932,-4.0428 0.1536,-0.6984 0.222,-1.4712 0.3888,-2.1468 0.072,-0.2916 0.1272,-0.7668 0.1776,-1.0896 0.1176,-0.7416 0.108,-0.4116 0.408,-0.8604"
     style="fill:#252122;fill-opacity:1;fill-rule:evenodd;stroke:none"
     id="path123" /><path
     d="m 377.18812,419.96891 -0.1332,-0.6 c 0,-1.5696 0.5568,-1.5912 1.3344,-2.268 0.3288,-0.0264 0.2448,-0.1332 0.534,-0.1332 h 0.4668 c 1.014,0 1.476,0.7668 2.0664,1.2 l 0.1344,0.3348 v 0.2664 c -0.1176,0.1764 -0.2376,0.3324 -0.534,0.3324 h -0.1332 c -0.4836,0 -0.8976,-0.8484 -1.4676,-0.9996 -0.1428,-0.0996 -0.2196,-0.1332 -0.4668,-0.1332 -0.5424,0 -0.8664,0.7188 -0.8664,1.3344 0,0.3648 0.8916,1.6584 1.1148,1.9524 0.6804,0.8916 1.4196,0.5844 1.4196,1.5828 -1.302,0.3036 -1.4052,0.444 -2.2428,-0.6936 -0.3204,-0.4344 -1.1028,-1.6464 -1.2264,-2.1756"
     style="fill:#252122;fill-opacity:1;fill-rule:evenodd;stroke:none"
     id="path125" /><path
     d="m 366.78364,420.50291 c -0.0666,-0.252 -0.39936,-0.7128 -0.39936,-1.0008 v -0.4668 c 0,-0.4032 0.18984,-0.606 0.26664,-0.9336 l 0.6672,-0.8004 c 0.3108,-0.1656 0.6768,-0.4668 1.1328,-0.4668 h 0.2664 c 0.912,0 2.0688,0.4824 2.0688,1.4004 -0.114,0.216 -0.348,0.3996 -0.6672,0.3996 -0.4524,0 -0.8148,-0.7332 -1.734,-0.7332 -0.57,0.0132 -0.8772,0.5748 -0.9228,1.08 -0.0456,0.5268 0.4092,1.014 0.6732,1.3032 0.4152,0.4584 0.546,0.5868 0.9996,1.002 0.6036,0.5532 0.7848,0.0708 1.3176,0.684 v 0.4008 c -1.2048,0.6372 -1.1292,0.5952 -2.1612,-0.1728 -0.6324,-0.4716 -1.0092,-1.1208 -1.50768,-1.6956"
     style="fill:#252122;fill-opacity:1;fill-rule:evenodd;stroke:none"
     id="path127" /><path
     d="m 372.25252,418.90211 c 0.234,-0.054 0.2256,-0.1332 0.4668,-0.1332 h 0.2676 c 0.5628,0 1.5708,1.0536 2.2008,1.2 l 0.2004,-1.4004 c 0.0528,-0.6456 0.3048,-1.5144 0.7344,-1.8012 0.3576,-0.1728 0.7992,0.0504 0.7992,0.468 v 0.066 c 0,0.2616 -0.2856,0.2616 -0.4272,0.5064 -0.1116,0.1932 -0.15,0.4692 -0.2016,0.7308 -0.0636,0.3228 -0.2196,1.4136 -0.2376,1.632 -0.162,0.3348 -0.2868,0.7332 -0.8004,0.7332 h -0.2004 c -0.462,0 -1.4436,-0.8436 -1.8684,-1.0668 -0.1212,-0.1068 -0.2364,-0.2004 -0.4668,-0.2004 h -0.066 c -0.3132,0 -0.4668,0.528 -0.4668,0.8664 0,0.5856 1.35,1.7352 1.9344,1.7352 h 0.3996 l -0.0696,-0.036 0.3336,-0.666 0.0696,0.0336 c 0.2436,0.1644 0.5016,0.2892 0.534,0.6684 l -0.1332,0.3996 c -0.2016,0.3 -0.4968,0.4668 -1.0008,0.4668 h -0.2676 c -0.8244,0 -2.6004,-1.5624 -2.6004,-2.5344 v -0.1344 c 0,-0.7488 0.552,-1.1028 0.8664,-1.5336"
     style="fill:#272324;fill-opacity:1;fill-rule:evenodd;stroke:none"
     id="path129" /></g><g
   id="g13945"
   transform="matrix(0,-1.4131465,1.4131465,0,-188.34881,1190.0391)"><path
     d="m 520.16092,477.80051 0.2808,-0.1416 c 0.0528,0.6348 0.276,0.7392 0.702,0.564 l 0.0804,0.468 0.2004,-0.048 -2.2476,3.6528 h -0.7032 c -0.2172,-0.1464 -0.42,-0.186 -0.42,-0.5628 v -0.1404 c 0,-0.3288 0.9444,-1.5084 1.1052,-1.8432 0.3312,-0.6876 0.5388,-1.4184 1.002,-1.9488"
     style="fill:#e1ceb6;fill-opacity:1;fill-rule:evenodd;stroke:none"
     id="path131" /><path
     d="m 500.21452,435.38051 c -0.5004,0 -1.2636,0.7656 -1.2636,1.2648 0,1.1424 1.7544,3.7056 2.2224,4.5312 l 4.8,-1.0188 c -0.8844,-0.7692 -2.016,-1.4604 -2.9772,-2.2212 -0.6468,-0.5124 -2.3232,-2.556 -2.7816,-2.556 m -32.586,0.8448 c -0.9696,0 -1.5456,0.45 -1.5456,1.404 0,1.608 0.5388,2.004 1.6404,2.5728 0.648,0.336 2.2668,1.3632 2.8548,1.5 v -0.8424 c 0,-1.3968 -1.7256,-4.6344 -2.9496,-4.6344 m 28.6536,6.0396 3.9948,-0.7368 -2.0292,-3.7596 c -0.0264,1.2348 -1.4424,3.5052 -1.9656,4.4964 m -19.3836,-2.67 c 0,1.932 2.3484,2.9724 3.7464,3.6984 0.8232,0.426 1.5732,0.9804 2.2668,1.5264 0.4356,0.342 0.5832,0.4368 0.978,0.8484 0.2172,0.2244 0.714,1.0908 0.8748,1.0908 0.8952,0 4.0224,-2.9388 4.2132,-3.6516 -1.3968,0 -4.7856,-1.1988 -6.0912,-1.6344 -1.2672,-0.4224 -4.8576,-1.878 -5.988,-1.878 m 0,2.388 0.2808,1.686 c 1.5648,1.0476 3.4056,3.3708 5.8992,3.3708 h 0.5616 c -0.1128,-1.3608 -5.442,-4.1868 -6.7416,-5.0568 m -11.5176,7.866 -0.1908,-0.7416 -0.5124,0.6012 0.282,-1.2648 c -0.3972,0.0336 -0.5628,-0.002 -0.5628,0.4224 v 0.5616 c 0,0.906 0.4368,1.5996 1.008,1.9896 l 0.1164,-0.1632 v -0.984 z m 2.9484,0.1404 -0.1392,-0.5616 -0.1416,-0.4224 0.1416,-0.2808 -0.7032,-0.42 -0.1392,-0.2808 h -0.2808 c -0.0948,-0.0852 -0.2568,-0.2808 -0.4224,-0.2808 -0.414,0 -0.702,0.288 -0.702,0.7008 0,1.386 0.6264,3.6528 1.9668,3.6528 l 0.4104,-0.004 0.2904,-1.1196 -0.1392,-0.282 0.012,-0.4284 z m -13.9044,-8.4276 1.2636,0.4212 c 1.5408,2.3016 4.4136,4.4808 6.7428,6.0408 1.1436,0.9936 0.8568,1.4328 1.6236,2.388 l 0.0612,-1.968 c 0.1464,-0.2184 0.1872,-0.42 0.5616,-0.42 0.3504,0 0.5292,0.3504 0.8436,0.5616 0.0144,-0.6948 0.2844,-1.1244 0.9828,-1.1244 h 0.4212 c 0.5208,0 1.1388,0.7236 1.2648,1.2636 0.5184,0.3816 0.8424,1.4832 0.8424,2.388 v 0.1416 c 0,0.8208 -0.5736,1.0476 -0.984,1.404 -2.0196,-0.9696 -0.9144,-0.4536 -2.0244,-1.7928 l -0.348,0.8724 -0.1548,-0.0636 c 0.2736,1.0272 2.7228,1.8516 3.9024,2.1384 2.1264,0.516 3.33,0.2508 5.6484,0.2508 3.1752,0 8.4336,6.6744 11.3304,8.3328 4.338,2.4828 9.0216,4.0272 15.7776,4.0272 h 1.1256 c 2.6304,0 5.562,-0.522 7.758,-0.9492 1.4004,-0.2736 6.2328,-2.1408 6.7092,-2.1408 h 0.7008 c 2.208,0 2.9508,6.0984 2.9508,8.568 0,2.7264 -0.8112,3.9504 -1.2636,5.8992 -0.4632,0.5304 -0.6708,1.2612 -1.002,1.9488 -0.1608,0.3348 -1.1052,1.5144 -1.1052,1.8432 v 0.1404 c 0,0.3768 0.2028,0.4164 0.42,0.5628 h 0.7032 c 1.6152,-0.4308 4.0464,-5.1276 4.6188,-6.8988 0.834,-2.574 1.4208,-6.7188 1.4208,-10.098 0,-3.0108 -0.4284,-5.6952 -1.8264,-7.3032 v -0.5628 c 0,-5.3916 -0.0516,-8.4516 -3.3708,-10.674 0.1416,0.6072 0.7032,1.08 0.7032,1.5456 0,0.2868 -0.2904,0.258 -0.5616,0.2808 l -0.984,-1.5456 c -0.0636,-0.7692 -0.4212,-1.5204 -0.4212,-2.2476 0,-4.1292 4.4952,-4.8756 4.4952,-8.4276 v -0.1392 c 0,-0.324 -0.0984,-0.4224 -0.4224,-0.4224 h -0.4212 c -0.5892,0 -1.0512,0.1752 -1.404,0.4224 -2.2308,0.5196 -5.3196,3.678 -7.0512,5.0292 -1.5012,1.17 -4.5528,5.148 -5.0292,7.1892 -0.5184,0.9804 -1.1232,3.0144 -1.1232,4.4952 v 1.4052 c 0,1.1796 0.5988,3.3288 1.1232,3.9336 -0.0144,0.6912 -0.008,0.6852 -0.702,0.7008 -0.1608,-0.6864 -0.6252,-1.362 -0.8976,-2.3328 -0.2172,-0.7716 -0.366,-1.944 -0.366,-2.8644 l -0.072,-0.8532 0.4932,-2.9388 c 0.4536,-0.7152 1.1676,-3.0168 1.7772,-4.122 0.7308,-1.3272 1.8528,-2.502 2.436,-3.6024 -0.9936,-0.2328 -3.5808,-1.2648 -4.3536,-1.2648 h -0.4212 c -2.184,0 -3.8592,0.6048 -5.496,1.1064 -0.7608,0.2328 -4.7604,1.1256 -5.4528,1.1448 l -2.2548,4.4916 -0.2904,0.1656 -0.4128,-0.1656 c 0,-2.0268 4.6356,-8.3664 4.6356,-10.536 0,-0.3156 -0.8592,-1.1232 -0.9828,-1.1232 -0.378,0 -1.128,0.8832 -1.404,1.1232 l -6.8832,8.2884 c -0.6264,0.4176 -4.2084,4.8264 -4.4952,5.6172 l -0.1404,1.5456 h -0.5616 c -0.1452,-0.276 -0.282,-0.414 -0.282,-0.8424 v -0.4224 c 0,-0.5088 0.168,-0.492 0.282,-0.9828 l 2.2476,-2.9496 c -0.2136,0.0504 -1.9236,0.4212 -1.9668,0.4212 h -0.4212 c -2.6292,0 -3.8856,-1.8828 -5.478,-2.9484 l 0.1416,-0.0108 0.2796,5.2068 c -0.426,0.6708 -0.1572,2.9496 -2.106,2.9496 h -1.1244 c -0.3228,0 -0.4212,-0.0972 -0.4212,-0.4212 0,-0.7752 0.6888,-0.2808 0.9828,-0.2808 1.4988,0 1.8264,-1.56 1.8264,-3.0912 v -1.2624 c 0,-1.9068 -0.5748,-3.5808 -0.8508,-5.4708 -0.1572,-1.0716 -1.5696,-4.2708 -1.2564,-4.9236 l 2.1072,0.1392 h 0.2808 c 0.6192,0 0.702,-0.9024 0.702,-1.5432 l 0.005,-0.468 -5.7636,-0.516 c -0.7512,-0.0744 -1.5456,0.666 -1.5456,1.404 v 0.8424 c 0,2.0844 1.8348,4.0848 2.7252,5.4228 0.6804,1.0212 2.1468,4.842 1.2084,6.798 -1.0128,-0.0228 -0.7044,-0.4452 -0.702,-1.5456 0.001,-0.9384 -0.03,-1.3032 -0.1536,-2.094 -0.2496,-1.5984 -0.6708,-2.0256 -1.398,-3.0672 l -0.9768,-0.1752 c 0.228,0.9804 1.1232,1.854 1.1232,3.09 v 0.2808 c 0,0.2304 -0.084,0.4212 -0.2808,0.4212 -0.4776,0 -1.1976,-2.838 -1.8612,-3.618 -0.8352,-0.9792 -2.208,-1.5084 -3.3924,-2.2248 -2.2104,-1.3392 -4.7016,-3.1464 -8.0904,-3.1464 l -1.128,-0.0312 -1.26,0.1704 -0.8424,-0.5616 c 0.594,-0.138 1.0164,-0.42 1.686,-0.42 h 1.8264 c 2.4636,0 4.398,1.41 6.18,1.8252 -0.7044,-1.4664 0.5148,-3.2316 1.8252,-3.2316 h 0.7032 c 1.1148,0 1.3644,1.002 1.9656,1.4064 0,-1.4724 0.9348,-2.388 2.388,-2.388 1.3308,0 6.6024,0.276 6.6024,1.2624 0,1.584 -0.0396,2.8248 -1.5456,2.9508 l -1.422,0.005 0.162,0.564 0.558,-0.288 h 1.1232 c 1.2396,0.1032 4.5936,1.506 5.9172,1.95 1.398,0.4668 4.7028,1.5264 6.3036,1.5612 0.1464,-0.552 2.5248,-3.3396 3.0516,-3.9696 0.9324,-1.1172 2.0844,-3.1932 3.9708,-3.1932 l 0.9828,0.8424 0.2808,0.1416 c 0.0672,-0.798 0.9708,-1.6872 1.8264,-1.6872 h 0.2808 c 1.1232,0 1.698,1.4268 2.49,2.1456 0.7836,0.708 1.8552,1.4724 2.7096,2.0664 1.1184,0.78 1.5096,1.188 2.9652,1.6704 0.9108,0.3024 2.9136,0.7956 3.6336,1.1412 2.268,-1.518 6.9312,-6.6012 10.1136,-6.6012 h 0.7032 c 0.7248,0 1.1232,0.5844 1.1232,1.2648 v 0.2808 c 0,3.42 -4.3548,5.304 -4.3548,7.4436 v 1.686 c 0.9408,0.2508 2.808,2.2968 3.3456,3.1152 0.8676,1.32 1.0092,3.4176 1.0092,5.5932 0,4.0332 0.1728,2.7456 1.2696,5.3316 0.4644,1.0932 0.696,4.2444 0.696,5.904 0,3.6816 -0.6828,7.776 -1.6308,10.59 -0.594,1.7652 -3.3984,6.9684 -5.2512,6.9684 h -0.5616 c -0.7104,0 -1.4052,-0.5076 -1.4052,-1.2648 v -0.2808 c 0,-0.9036 3.3708,-5.292 3.3708,-9.27 v -0.4212 c 0,-1.8252 -0.72,-7.7256 -2.1072,-7.7256 h -0.2808 c -0.2352,0 -6.0588,1.866 -7.1076,2.1624 -2.0064,0.5652 -5.8536,0.9288 -8.3412,0.9288 -6.2496,0 -10.9932,-1.1448 -15.1704,-3.2316 -2.0256,-1.0116 -3.8292,-2.3544 -5.3736,-3.8976 -1.398,-1.398 -3.204,-3.3324 -4.9716,-4.2972 -3.396,-1.8552 -5.238,-0.1944 -8.1036,-1.1688 -2.436,-0.828 -4.314,-1.6812 -5.628,-3.6408 -0.8244,-1.2288 -0.7776,-1.7928 -2.0208,-2.6148 -0.9228,-0.6108 -1.8168,-1.2708 -2.6592,-1.9764 -1.6896,-1.4112 -3.3396,-2.8884 -4.392,-4.878"
     style="fill:#783d2c;fill-opacity:1;fill-rule:evenodd;stroke:none"
     id="path133" /><path
     d="m 502.18012,464.17571 c 0,-0.4104 0.7872,-1.6848 1.2648,-1.6848 h 0.2808 c 0.438,0 0.7032,0.6948 0.7032,1.1232 v 0.8424 c 0,0.3252 -0.1572,0.8424 -0.4224,0.8424 -0.5472,0 -1.8264,-0.7716 -1.8264,-1.1232"
     style="fill:#7f82c6;fill-opacity:1;fill-rule:evenodd;stroke:none"
     id="path135" /><path
     d="m 504.99052,461.78771 v -0.5616 c 0,-0.7356 0.6276,-1.5456 1.404,-1.5456 h 0.282 c 1.4136,0 2.8092,1.2156 2.8092,2.6688 v 0.5628 c 0,0.8856 -1.1148,1.9668 -1.9668,1.9668 -1.158,0 -2.5284,-1.8192 -2.5284,-3.0912"
     style="fill:#7f82c6;fill-opacity:1;fill-rule:evenodd;stroke:none"
     id="path137" /><path
     d="m 510.74932,460.94531 v -0.1404 c 0,-0.4728 0.6288,-1.1244 1.2648,-1.1244 h 0.42 c 0.7272,0 1.686,0.8556 1.686,1.5456 0,0.6012 -1.1916,1.404 -1.8252,1.404 h -0.2808 c -0.4524,0 -1.2648,-1.1496 -1.2648,-1.6848"
     style="fill:#7f82c6;fill-opacity:1;fill-rule:evenodd;stroke:none"
     id="path139" /><path
     d="m 521.42452,478.64291 c 2.67,-3.8424 1.9656,-14.1108 1.9656,-20.6472 1.398,1.608 1.8264,4.2924 1.8264,7.3032 0,3.3792 -0.5868,7.524 -1.4208,10.098 -0.5724,1.7712 -3.0036,6.468 -4.6188,6.8988"
     style="fill:#a88d78;fill-opacity:1;fill-rule:evenodd;stroke:none"
     id="path141" /><path
     d="m 483.78052,451.11251 c 0.2868,-0.7908 3.8688,-5.1996 4.4952,-5.6172 l -0.4212,0.9828 c 0.546,0.1272 1.6152,0.5412 1.9152,1.1616 l 0.192,-0.6 0.648,-0.0144 -0.228,1.1376 0.3372,0.0588 0.6468,1.0644 -0.4356,0.078 0.4476,0.0708 -0.144,0.2424 0.4368,0.1752 0.1176,2.244 c 0.007,0.3288 -0.0468,0.3648 -0.2124,0.6516 l 0.9132,0.7524 c -0.7908,0.066 -1.1208,0.4224 -2.1072,0.4224 h -1.404 c -1.17,0 -2.382,-0.3024 -3.3192,-0.6144 -1.4844,-0.4956 -1.878,-0.2604 -1.878,-2.196"
     style="fill:#e9dac9;fill-opacity:1;fill-rule:evenodd;stroke:none"
     id="path143" /><path
     d="m 510.74932,460.94531 c 0,0.5352 0.8124,1.6848 1.2648,1.6848 h 0.2808 c 0.6336,0 1.8252,-0.8028 1.8252,-1.404 0,-0.69 -0.9588,-1.5456 -1.686,-1.5456 h -0.42 c -0.636,0 -1.2648,0.6516 -1.2648,1.1244 z m -5.7588,0.8424 c 0,1.272 1.3704,3.0912 2.5284,3.0912 0.852,0 1.9668,-1.0812 1.9668,-1.9668 v -0.5628 c 0,-1.4532 -1.3956,-2.6688 -2.8092,-2.6688 h -0.282 c -0.7764,0 -1.404,0.81 -1.404,1.5456 z m -2.8104,2.388 c 0,0.3516 1.2792,1.1232 1.8264,1.1232 0.2652,0 0.4224,-0.5172 0.4224,-0.8424 v -0.8424 c 0,-0.4284 -0.2652,-1.1232 -0.7032,-1.1232 h -0.2808 c -0.4776,0 -1.2648,1.2744 -1.2648,1.6848 m 17.9808,13.6248 c 0.4524,-1.9488 1.2636,-3.1728 1.2636,-5.8992 0,-2.4696 -0.7428,-8.568 -2.9508,-8.568 h -0.7008 c -0.4764,0 -5.3088,1.8672 -6.7092,2.1408 -2.196,0.4272 -5.1276,0.9492 -7.758,0.9492 h -1.1256 c -6.756,0 -11.4396,-1.5444 -15.7776,-4.0272 -2.8968,-1.6584 -8.1552,-8.3328 -11.3304,-8.3328 -2.3184,0 -3.522,0.2652 -5.6484,-0.2508 -1.1796,-0.2868 -3.6288,-1.1112 -3.9024,-2.1384 l 0.1548,0.0636 0.348,-0.8724 c 1.11,1.3392 0.005,0.8232 2.0244,1.7928 0.4104,-0.3564 0.984,-0.5832 0.984,-1.404 v -0.1416 c 0,-0.9048 -0.324,-2.0064 -0.8424,-2.388 -0.126,-0.54 -0.744,-1.2636 -1.2648,-1.2636 h -0.4212 c -0.6984,0 -0.9684,0.4296 -0.9828,1.1244 -0.3144,-0.2112 -0.4932,-0.5616 -0.8436,-0.5616 -0.3744,0 -0.4152,0.2016 -0.5616,0.42 l -1.6848,-0.42 c -2.3292,-1.56 -5.202,-3.7392 -6.7428,-6.0408 0.4392,0.036 0.4992,0.1404 0.984,0.1404 h 0.2808 c 1.1616,0 0.9744,-0.8688 1.404,-1.5444 2.9628,0 7.3044,2.22 8.8176,3.684 1.0752,1.0404 2.4036,1.794 3.3708,2.8092 0.8688,0.912 1.71,3.0576 3.2616,3.0576 0.5208,0 0.6348,-0.1368 0.8436,-0.4212 0.9384,-1.956 -0.528,-5.7768 -1.2084,-6.798 -0.8904,-1.338 -2.7252,-3.3384 -2.7252,-5.4228 v -0.8424 c 0,-0.738 0.7944,-1.4784 1.5456,-1.404 l 5.7636,0.516 -0.005,0.468 c -1.4964,0 -2.8068,0.186 -3.09,1.404 -0.3132,0.6528 1.0992,3.852 1.2564,4.9236 0.276,1.89 0.8508,3.564 0.8508,5.4708 v 1.2624 c 0,1.5312 -0.3276,3.0912 -1.8264,3.0912 -0.294,0 -0.9828,-0.4944 -0.9828,0.2808 0,0.324 0.0984,0.4212 0.4212,0.4212 h 1.1244 c 1.9488,0 1.68,-2.2788 2.106,-2.9496 0.2028,0.0972 1.5072,0.4212 1.8264,0.4212 l 0.2856,0.0468 3.0852,-0.1872 c -0.114,0.4908 -0.282,0.474 -0.282,0.9828 v 0.4224 c 0,0.4284 0.1368,0.5664 0.282,0.8424 h 0.5616 l 0.1404,-1.5456 c 0,1.9356 0.3936,1.7004 1.878,2.196 0.9372,0.312 2.1492,0.6144 3.3192,0.6144 h 1.404 c 0.9864,0 1.3164,-0.3564 2.1072,-0.4224 l -0.9132,-0.7524 c 0.1656,-0.2868 0.2196,-0.3228 0.2124,-0.6516 l -0.1176,-2.244 -0.4368,-0.1752 0.144,-0.2424 -0.4476,-0.0708 0.4356,-0.078 -0.6468,-1.0644 -0.3372,-0.0588 0.228,-1.1376 -0.648,0.0144 -0.192,0.6 c -0.3,-0.6204 -1.3692,-1.0344 -1.9152,-1.1616 l 0.4212,-0.9828 6.8832,-8.2884 c 0.4668,0.738 -0.6348,3.9372 -0.8964,4.7244 -0.39,1.1844 -1.7736,3.1296 -1.7736,4.1256 0,0.1368 0.3684,1.602 0.4212,1.686 l 0.4128,0.1656 0.2904,-0.1656 c 0.3012,0.3456 0.4632,0.7008 1.1232,0.7008 h 0.4224 c 0.7032,0 0.732,-0.36 1.1736,-0.6516 0.4896,-0.3252 0.8892,-0.2616 1.5792,-0.3888 0.63,-0.1152 2.7816,0.1128 3.5364,0.2292 2.7192,0.4164 3.8544,0.8364 5.9304,1.9356 v 0.4212 l -0.4932,2.9388 0.072,0.8532 c 0,0.9204 0.1488,2.0928 0.366,2.8644 0.2724,0.9708 0.7368,1.6464 0.8976,2.3328 0.6936,-0.0156 0.6876,-0.01 0.702,-0.7008 l 0.1416,0.42 c 0.438,0.0372 0.498,0.1404 0.9828,0.1404 l 0.4164,-0.036 3.3756,-0.3852 c -0.3708,-0.6588 0.6492,-0.444 1.0176,-0.8172 0.3564,-0.3612 0.0384,-0.4008 0.2388,-0.6132 0.3024,-0.3228 0.1644,0.1656 0.6084,-0.498 0.4608,-0.69 0.804,-2.5248 0.804,-3.69 0,-1.2156 -1.4196,-2.6724 -2.1624,-3.3156 -1.2444,-1.0824 -2.5188,-0.8976 -4.4388,-0.8976 l -0.0768,-0.5772 -0.1272,0.4572 -0.0768,-0.3024 -0.2364,0.1068 -0.4668,0.174 c 0.4764,-2.0412 3.528,-6.0192 5.0292,-7.1892 1.7316,-1.3512 4.8204,-4.5096 7.0512,-5.0292 1.2024,1.8936 -3.6528,4.3056 -3.6528,7.4436 v 1.2648 c 0,1.1088 0.7968,2.0208 1.8264,2.106 l 0.984,1.5456 c 1.1748,1.7556 2.8092,5.4096 2.7984,8.2944 l 0.4308,0.5532 v 0.5628 c 0,6.5364 0.7044,16.8048 -1.9656,20.6472 l -0.2004,0.048 -0.0804,-0.468 c -0.426,0.1752 -0.6492,0.0708 -0.702,-0.564"
     style="fill:#dcc6a5;fill-opacity:1;fill-rule:evenodd;stroke:none"
     id="path145" /><path
     d="m 508.92292,458.27771 c -0.5244,-0.6048 -1.1232,-2.754 -1.1232,-3.9336 v -1.4052 c 0,-1.4808 0.6048,-3.5148 1.1232,-4.4952 l 0.4668,-0.174 0.2364,-0.1068 0.0768,0.3024 0.1272,-0.4572 0.0768,0.5772 c 1.92,0 3.1944,-0.1848 4.4388,0.8976 0.7428,0.6432 2.1624,2.1 2.1624,3.3156 0,1.1652 -0.3432,3 -0.804,3.69 -0.444,0.6636 -0.306,0.1752 -0.6084,0.498 -0.2004,0.2124 0.1176,0.252 -0.2388,0.6132 -0.3684,0.3732 -1.3884,0.1584 -1.0176,0.8172 l -3.3756,0.3852 -0.4164,0.036 c -0.4848,0 -0.5448,-0.1032 -0.9828,-0.1404"
     style="fill:#e4d1be;fill-opacity:1;fill-rule:evenodd;stroke:none"
     id="path147" /><path
     d="m 520.16092,448.58531 c 0.2712,-0.0228 0.5616,0.006 0.5616,-0.2808 0,-0.4656 -0.5616,-0.9384 -0.7032,-1.5456 3.3192,2.2224 3.3708,5.2824 3.3708,10.674 l -0.4308,-0.5532 c 0.0108,-2.8848 -1.6236,-6.5388 -2.7984,-8.2944"
     style="fill:#a88d78;fill-opacity:1;fill-rule:evenodd;stroke:none"
     id="path149" /><path
     d="m 468.32932,449.98931 0.1536,0.2736 -0.012,0.4284 c -0.3096,-0.006 -0.7032,0.0432 -0.7032,-0.2808 0,-0.4236 0.1668,-0.3876 0.5616,-0.4212"
     style="fill:#faf9f8;fill-opacity:1;fill-rule:evenodd;stroke:none"
     id="path151" /><path
     d="m 465.38092,449.84891 0.1404,0.4212 -0.1404,0.1404 c -0.432,-0.3168 -0.2268,0.09 -0.2808,-0.5616"
     style="fill:#faf9f8;fill-opacity:1;fill-rule:evenodd;stroke:none"
     id="path153" /><path
     d="m 466.92532,450.27011 v -0.4212 l 0.57,0.002 0.1332,-0.4236 h 0.5616 l 0.1392,0.5616 c -0.3948,0.0336 -0.5616,-0.002 -0.5616,0.4212 0,0.324 0.3936,0.2748 0.7032,0.2808 l 0.1392,0.282 c -0.3144,0.072 -0.3228,0.1392 -0.7008,0.1392 -0.6672,0 -0.8568,-0.2964 -0.984,-0.8424"
     style="fill:#7ea9b7;fill-opacity:1;fill-rule:evenodd;stroke:none"
     id="path155" /><path
     d="m 464.67772,449.70851 0.5124,-0.6012 0.1908,0.7416 h -0.2808 c 0.054,0.6516 -0.1512,0.2448 0.2808,0.5616 l 0.1404,-0.1404 v 0.984 -0.5628 c -0.648,-0.054 -0.7884,-0.3324 -0.8436,-0.9828"
     style="fill:#7ea9b7;fill-opacity:1;fill-rule:evenodd;stroke:none"
     id="path157" /><path
     d="m 466.78492,449.56811 0.1404,-0.4212 c 0.1716,0.096 0.15,0.1392 0.4224,0.1392 0.588,0 0.294,0.012 0.42,-0.1392 l 0.2808,-0.1416 0.1416,0.4224 h -0.5616 l -0.1332,0.4236 -0.57,-0.002 v 0.4212"
     style="fill:#5f7fac;fill-opacity:1;fill-rule:evenodd;stroke:none"
     id="path159" /><path
     d="m 467.06692,448.02371 c -0.1356,0.576 -0.282,0.4092 -0.282,1.1232 v 0.4212 l 0.1404,0.702 c 0.1272,0.546 0.3168,0.8424 0.984,0.8424 0.378,0 0.3864,-0.0672 0.7008,-0.1392 l -0.2904,1.1196 -0.4104,0.004 c -1.3404,0 -1.9668,-2.2668 -1.9668,-3.6528 0,-0.4128 0.288,-0.7008 0.702,-0.7008 0.1656,0 0.3276,0.1956 0.4224,0.2808"
     style="fill:#faf9f8;fill-opacity:1;fill-rule:evenodd;stroke:none"
     id="path161" /><path
     d="m 467.06692,448.02371 h 0.2808 l 0.1392,0.2808 c -0.216,0.3228 -0.2676,0.282 -0.2808,0.8424 h 0.5616 c -0.126,0.1512 0.168,0.1392 -0.42,0.1392 -0.2724,0 -0.2508,-0.0432 -0.4224,-0.1392 l -0.1404,0.4212 v -0.4212 c 0,-0.714 0.1464,-0.5472 0.282,-1.1232"
     style="fill:#3d5b66;fill-opacity:1;fill-rule:evenodd;stroke:none"
     id="path163" /><path
     d="m 467.48692,448.30451 0.7032,0.42 -0.1416,0.2808 -0.2808,0.1416 h -0.5616 c 0.0132,-0.5604 0.0648,-0.5196 0.2808,-0.8424"
     style="fill:#2a3132;fill-opacity:1;fill-rule:evenodd;stroke:none"
     id="path165" /><path
     d="m 462.43132,448.02371 1.6848,0.42 -0.0612,1.968 c -0.7668,-0.9552 -0.48,-1.3944 -1.6236,-2.388"
     style="fill:#a5866d;fill-opacity:1;fill-rule:evenodd;stroke:none"
     id="path167" /><path
     d="m 464.67772,449.70851 c 0.0552,0.6504 0.1956,0.9288 0.8436,0.9828 v 0.5628 l -0.1164,0.1632 c -0.5712,-0.39 -1.008,-1.0836 -1.008,-1.9896 v -0.5616 c 0,-0.4248 0.1656,-0.3888 0.5628,-0.4224"
     style="fill:#f7f8f8;fill-opacity:1;fill-rule:evenodd;stroke:none"
     id="path169" /><path
     d="m 477.88132,450.12971 -0.2796,-5.2068 -0.1416,0.0108 c 1.5924,1.0656 2.8488,2.9484 5.478,2.9484 h 0.4212 c 0.0432,0 1.7532,-0.3708 1.9668,-0.4212 l -2.2476,2.9496 -3.0852,0.1872 -0.2856,-0.0468 c -0.3192,0 -1.6236,-0.324 -1.8264,-0.4212"
     style="fill:#aa9078;fill-opacity:1;fill-rule:evenodd;stroke:none"
     id="path171" /><path
     d="m 458.35732,440.57891 c 0,-1.77 -1.2528,-1.9548 -1.8264,-2.8104 l 1.26,-0.1704 1.128,0.0312 c 3.3888,0 5.88,1.8072 8.0904,3.1464 1.1844,0.7164 2.5572,1.2456 3.3924,2.2248 0.6636,0.78 1.3836,3.618 1.8612,3.618 0.1968,0 0.2808,-0.1908 0.2808,-0.4212 v -0.2808 c 0,-1.236 -0.8952,-2.1096 -1.1232,-3.09 l 0.9768,0.1752 c 0.7272,1.0416 1.1484,1.4688 1.398,3.0672 0.1236,0.7908 0.1548,1.1556 0.1536,2.094 -0.002,1.1004 -0.3108,1.5228 0.702,1.5456 -0.2088,0.2844 -0.3228,0.4212 -0.8436,0.4212 -1.5516,0 -2.3928,-2.1456 -3.2616,-3.0576 -0.9672,-1.0152 -2.2956,-1.7688 -3.3708,-2.8092 -1.5132,-1.464 -5.8548,-3.684 -8.8176,-3.684"
     style="fill:#aa9078;fill-opacity:1;fill-rule:evenodd;stroke:none"
     id="path173" /><path
     d="m 493.61332,447.74291 2.2548,-4.4916 c 0.6924,-0.0192 4.692,-0.912 5.4528,-1.1448 1.6368,-0.5016 3.312,-1.1064 5.496,-1.1064 h 0.4212 c 0.7728,0 3.36,1.032 4.3536,1.2648 -0.5832,1.1004 -1.7052,2.2752 -2.436,3.6024 -0.6096,1.1052 -1.3236,3.4068 -1.7772,4.122 v -0.4212 c -2.076,-1.0992 -3.2112,-1.5192 -5.9304,-1.9356 -0.7548,-0.1164 -2.9064,-0.3444 -3.5364,-0.2292 -0.69,0.1272 -1.0896,0.0636 -1.5792,0.3888 -0.4416,0.2916 -0.4704,0.6516 -1.1736,0.6516 h -0.4224 c -0.66,0 -0.822,-0.3552 -1.1232,-0.7008"
     style="fill:#aa9078;fill-opacity:1;fill-rule:evenodd;stroke:none"
     id="path175" /><path
     d="m 476.89852,439.59491 c 1.1304,0 4.7208,1.4556 5.988,1.878 1.3056,0.4356 4.6944,1.6344 6.0912,1.6344 -0.1908,0.7128 -3.318,3.6516 -4.2132,3.6516 -0.1608,0 -0.6576,-0.8664 -0.8748,-1.0908 -0.3948,-0.4116 -0.5424,-0.5064 -0.978,-0.8484 -0.6936,-0.546 -1.4436,-1.1004 -2.2668,-1.5264 -1.398,-0.726 -3.7464,-1.7664 -3.7464,-3.6984"
     style="fill:#aa9078;fill-opacity:1;fill-rule:evenodd;stroke:none"
     id="path177" /><path
     d="m 452.17732,439.17371 v -0.2808 c 0,-0.3516 0.702,0.1344 0.702,-0.5616 v -0.4212 l -0.007,-0.2688 -0.2736,-0.1536 0.4212,-0.7008 1.8264,0.7008 c 0.0348,0.4176 0.4212,1.2612 0.4212,1.2648 0,0.7884 -0.6516,1.686 -1.2636,1.686 -0.4848,0 -1.6152,-0.948 -1.8264,-1.2648"
     style="fill:#252e31;fill-opacity:1;fill-rule:evenodd;stroke:none"
     id="path179" /><path
     d="m 477.31972,438.61211 0.4212,0.2808 h -1.1232 l -0.558,0.288 -0.162,-0.564"
     style="fill:#e2d3c3;fill-opacity:1;fill-rule:evenodd;stroke:none"
     id="path181" /><path
     d="m 445.29532,437.91011 c 0.708,0.1896 0.8232,1.0476 1.0356,1.7724 0.3276,1.116 0.4248,1.1136 0.9864,1.9632 0.8568,1.2984 2.4372,1.734 2.472,3.288 -1.8504,-0.1548 -4.494,-4.4916 -4.494,-7.0236"
     style="fill:#ee1c29;fill-opacity:1;fill-rule:evenodd;stroke:none"
     id="path183" /><path
     d="m 453.01972,436.78691 c -0.558,-0.048 -0.3372,-0.1416 -0.702,-0.1416 -0.408,0 -1.2636,0.3528 -1.2636,0.8424 0,0.6936 0.5556,1.5348 1.1232,1.686 0.2112,0.3168 1.3416,1.2648 1.8264,1.2648 0.612,0 1.2636,-0.8976 1.2636,-1.686 0,-0.004 -0.3864,-0.8472 -0.4212,-1.2648 z m -2.2464,0.8424 v -0.1416 c 0,-0.4272 0.1344,-0.5664 0.2832,-0.8256 l 1.2612,-0.156 c 2.3952,-0.36 4.5924,2.5716 5.478,2.808 0.036,0.4404 0.1404,0.5004 0.1404,0.9828 v 0.4224 c 0,0.6012 -0.432,1.1232 -0.9828,1.1232 -2.298,0 -6.18,-2.358 -6.18,-4.2132"
     style="fill:#0f1210;fill-opacity:1;fill-rule:evenodd;stroke:none"
     id="path185" /><path
     d="m 452.45812,437.48771 h 0.1404 l 0.2736,0.1536 0.007,0.2688 v 0.4212 c 0,0.696 -0.702,0.21 -0.702,0.5616 l -0.2808,-0.1404"
     style="fill:#71797b;fill-opacity:1;fill-rule:evenodd;stroke:none"
     id="path187" /><path
     d="m 448.24492,436.64531 0.702,0.5616 c 0,3.1116 3.09,3.42 3.09,4.4952 0,0.1248 -0.156,0.2808 -0.2808,0.2808 -0.594,0 -2.28,-1.4316 -2.6136,-1.8804 -0.7536,-1.0128 -1.2828,-1.806 -0.8976,-3.4572"
     style="fill:#ed1a29;fill-opacity:1;fill-rule:evenodd;stroke:none"
     id="path189" /><path
     d="m 452.45812,437.48771 -0.5616,1.2648 c -0.144,-0.1056 -0.4224,-0.3456 -0.4224,-0.5616 0,-0.4572 0.6264,-1.1304 0.984,-0.7032"
     style="fill:#f2f1f0;fill-opacity:1;fill-rule:evenodd;stroke:none"
     id="path191" /><path
     d="m 495.15892,437.20691 c 0.276,-0.24 1.026,-1.1232 1.404,-1.1232 0.1236,0 0.9828,0.8076 0.9828,1.1232 0,2.1696 -4.6356,8.5092 -4.6356,10.536 -0.0528,-0.084 -0.4212,-1.5492 -0.4212,-1.686 0,-0.996 1.3836,-2.9412 1.7736,-4.1256 0.2616,-0.7872 1.3632,-3.9864 0.8964,-4.7244"
     style="fill:#a88d78;fill-opacity:1;fill-rule:evenodd;stroke:none"
     id="path193" /><path
     d="m 453.01972,436.78691 -0.4212,0.7008 h -0.1404 c -0.3576,-0.4272 -0.984,0.246 -0.984,0.7032 0,0.216 0.2784,0.456 0.4224,0.5616 l 0.2808,0.1404 v 0.2808 c -0.5676,-0.1512 -1.1232,-0.9924 -1.1232,-1.686 0,-0.4896 0.8556,-0.8424 1.2636,-0.8424 0.3648,0 0.144,0.0936 0.702,0.1416"
     style="fill:#526365;fill-opacity:1;fill-rule:evenodd;stroke:none"
     id="path195" /><path
     d="m 467.62852,436.22531 c 1.224,0 2.9496,3.2376 2.9496,4.6344 v 0.8424 c -0.588,-0.1368 -2.2068,-1.164 -2.8548,-1.5 -1.1016,-0.5688 -1.6404,-0.9648 -1.6404,-2.5728 0,-0.954 0.576,-1.404 1.5456,-1.404"
     style="fill:#a88d78;fill-opacity:1;fill-rule:evenodd;stroke:none"
     id="path197" /><path
     d="m 474.93172,437.62931 c 0.2832,-1.218 1.5936,-1.404 3.09,-1.404 0,0.6408 -0.0828,1.5432 -0.702,1.5432 h -0.2808"
     style="fill:#aa9078;fill-opacity:1;fill-rule:evenodd;stroke:none"
     id="path199" /><path
     d="m 450.77332,437.62931 c 0,1.8552 3.882,4.2132 6.18,4.2132 0.5508,0 0.9828,-0.522 0.9828,-1.1232 v -0.4224 c 0,-0.4824 -0.1044,-0.5424 -0.1404,-0.9828 -0.8856,-0.2364 -3.0828,-3.168 -5.478,-2.808 l -1.2612,0.156 c -0.1488,0.2592 -0.2832,0.3984 -0.2832,0.8256 z m 4.9152,4.3536 -1.2636,-0.4212 c -1.038,-0.5496 -3.9336,-2.3508 -3.9336,-3.6516 v -0.5628 c 0,-0.7236 0.5844,-1.122 1.2648,-1.122 h 1.1232 c 1.1592,0 1.9056,0.7716 2.8092,0.9816 l 0.8424,0.5616 c 0.5736,0.8556 1.8264,1.0404 1.8264,2.8104 -0.4296,0.6756 -0.2424,1.5444 -1.404,1.5444 h -0.2808 c -0.4848,0 -0.5448,-0.1044 -0.984,-0.1404"
     style="fill:#5c7c82;fill-opacity:1;fill-rule:evenodd;stroke:none"
     id="path201" /><path
     d="m 521.00332,436.22531 c 0.3528,-0.2472 0.8148,-0.4224 1.404,-0.4224 h 0.4212 c 0.324,0 0.4224,0.0984 0.4224,0.4224 v 0.1392 c 0,3.552 -4.4952,4.2984 -4.4952,8.4276 0,0.7272 0.3576,1.4784 0.4212,2.2476 -1.0296,-0.0852 -1.8264,-0.9972 -1.8264,-2.106 v -1.2648 c 0,-3.138 4.8552,-5.55 3.6528,-7.4436"
     style="fill:#aa9078;fill-opacity:1;fill-rule:evenodd;stroke:none"
     id="path203" /><path
     d="m 500.21452,435.38051 c 0.4584,0 2.1348,2.0436 2.7816,2.556 0.9612,0.7608 2.0928,1.452 2.9772,2.2212 l -4.8,1.0188 c -0.468,-0.8256 -2.2224,-3.3888 -2.2224,-4.5312 0,-0.4992 0.7632,-1.2648 1.2636,-1.2648"
     style="fill:#aa9078;fill-opacity:1;fill-rule:evenodd;stroke:none"
     id="path205" /><path
     d="m 496.98412,435.24131 c 0.6588,0.1524 0.5244,0.2544 0.9828,0.5616 v 0.2808"
     style="fill:#af967e;fill-opacity:1;fill-rule:evenodd;stroke:none"
     id="path207" /><path
     d="m 451.33492,434.39891 h 2.5272 v 0.2808 l -0.3036,0.0228 0.1644,0.1164 -2.388,0.1416 0.456,-0.1884"
     style="fill:#f26d72;fill-opacity:1;fill-rule:evenodd;stroke:none"
     id="path209" /><path
     d="m 453.30052,434.39891 0.7032,-0.2808 0.588,0.01 -0.1668,0.4104 -0.4212,0.2808 h -0.2808 l -0.1644,-0.1164 0.3036,-0.0228 v -0.2808"
     style="fill:#ee333b;fill-opacity:1;fill-rule:evenodd;stroke:none"
     id="path211" /><path
     d="m 454.00372,434.11811 1.1028,-0.4176 0.1608,0.4176 -0.5616,0.42 h -0.2808 l 0.1668,-0.4104"
     style="fill:#ee1f2c;fill-opacity:1;fill-rule:evenodd;stroke:none"
     id="path213" /><path
     d="m 456.53092,431.16731 h 0.1416 l -0.7032,2.2476 -0.702,0.7032 -0.1608,-0.4176 -1.1028,0.4176 -0.7032,0.2808 h -1.9656 v -0.1416 c 1.6668,0 2.07,-0.3108 2.9784,-0.954 0.5892,-0.4164 1.6044,-1.4172 1.7976,-2.136"
     style="fill:#ec1a29;fill-opacity:1;fill-rule:evenodd;stroke:none"
     id="path215" /><path
     d="m 456.67252,431.16731 0.5616,0.1404 -0.984,1.9668 -0.2808,0.1404"
     style="fill:#d71e2a;fill-opacity:1;fill-rule:evenodd;stroke:none"
     id="path217" /><path
     d="m 445.43572,430.60571 0.1368,-0.2736 0.4248,0.1332 0.5604,0.702 c 0.66,1.2468 2.808,3.09 4.7772,3.09 v 0.1416 l 0.456,0.3732 -0.456,0.1884 c -2.5272,-0.2112 -4.7712,-2.6688 -5.8992,-4.3548"
     style="fill:#f5aab0;fill-opacity:1;fill-rule:evenodd;stroke:none"
     id="path219" /><path
     d="m 522.25972,429.53531 c 0.1092,0.3852 0.3576,1.2108 0.8496,1.2108 h 0.1416 c 0.4632,0 0.8784,-0.5916 0.9768,-0.9444 z m -2.2404,-3.564 c 0.7416,-0.198 1.9164,-1.4052 3.5124,-1.4052 h 0.9816 c 1.0584,0 1.0848,0.1404 1.6584,0.5916 0.4488,0.3528 1.0992,0.372 1.5732,0.672 -0.9708,1.326 -1.536,0.7032 -3.09,0.7032 h -0.5616 c -0.8184,0 -1.884,0.366 -2.1072,0.9828 -0.2172,0.4896 1.8576,1.0728 2.5044,1.2876 1.3884,0.4596 1.7472,0.2376 3.1188,0.9612 l -0.1452,0.7008 c -0.4092,1.5324 -2.8896,2.388 -4.9164,2.388 -1.7712,0 -3.6516,-1.8492 -3.6516,-3.6516 v -0.8436 c 0,-1.0776 0.6108,-1.7976 1.1232,-2.3868"
     style="fill:#8184c7;fill-opacity:1;fill-rule:evenodd;stroke:none"
     id="path221" /><path
     d="m 453.72292,431.73011 0.9828,-1.2648 0.4212,0.2808 -0.2508,0.03 -0.4512,0.3912 v 0.2808 l -0.702,0.7032"
     style="fill:#9a262c;fill-opacity:1;fill-rule:evenodd;stroke:none"
     id="path223" /><path
     d="m 454.42492,431.44811 v -0.2808 l 0.4512,-0.3912 0.2508,-0.03 0.4212,0.1404 0.1404,0.2808 c -0.72,0.2904 -0.096,1.0008 -1.8912,1.3632"
     style="fill:#ec1b28;fill-opacity:1;fill-rule:evenodd;stroke:none"
     id="path225" /><path
     d="m 447.54172,427.51571 0.7032,-0.702 c -0.0504,0.2124 -0.2808,0.9852 -0.2808,1.1232 0,1.428 2.3544,4.4952 3.6516,4.4952 h 0.702 c 0.5232,0 1.0452,-0.4044 1.2636,-0.702 h 0.1416 v 0.4212 c -0.324,0.4836 -1.0248,0.8424 -1.8264,0.8424 h -0.1404 c -0.7104,0 -0.7464,-0.2256 -1.4052,-0.2808 -0.2496,-0.9372 -2.8092,-1.7784 -2.8092,-5.1972"
     style="fill:#7a262c;fill-opacity:1;fill-rule:evenodd;stroke:none"
     id="path227" /><path
     d="m 471.84172,427.65611 c -0.5616,-0.174 0.1224,1.6608 0.39,1.998 0.1668,0.21 1.482,1.092 1.8576,1.092 h 0.9828 c 0.9168,0 1.7268,-0.462 1.9668,-1.1244 l 0.4212,-1.1232 c -0.5568,-1.0512 -1.914,-3.2304 -3.3708,-3.2304 -1.7652,0 -1.6524,1.4496 -2.2476,2.388 m -0.4212,-3.9324 c 1.0248,0 1.0296,-0.2808 1.8252,-0.2808 h 0.7032 c 1.4532,0 3.5004,1.3392 3.9804,2.1984 0.3528,0.6288 -0.0456,0.3324 0.5784,0.9684 0.2532,0.258 0.4416,0.5952 0.5856,0.9588 0.2472,0.6228 0.39,2.202 0.474,2.3352 -0.792,1.1832 -2.1264,2.6688 -4.0728,2.6688 h -0.5628 c -2.0856,0 -5.8992,-3.4344 -5.8992,-5.478 v -0.7032 c 0,-1.026 1.5696,-2.4504 2.388,-2.6676"
     style="fill:#8184c7;fill-opacity:1;fill-rule:evenodd;stroke:none"
     id="path229" /><path
     d="m 456.67252,431.16731 h -0.1416 l -0.9828,-0.2808 -0.4212,-0.1404 -0.4212,-0.2808 0.4212,-0.4212 2.2476,0.702 -0.1404,0.5616"
     style="fill:#60272a;fill-opacity:1;fill-rule:evenodd;stroke:none"
     id="path231" /><path
     d="m 471.84172,427.65611 c 0,1.5072 1.6152,2.6688 3.09,2.6688 1.0032,0 1.458,-0.5292 2.1072,-0.7032 -0.24,0.6624 -1.05,1.1244 -1.9668,1.1244 h -0.9828 c -0.3756,0 -1.6908,-0.882 -1.8576,-1.092 -0.2676,-0.3372 -0.9516,-2.172 -0.39,-1.998"
     style="fill:#7576b6;fill-opacity:1;fill-rule:evenodd;stroke:none"
     id="path233" /><path
     d="m 491.08492,429.76331 0.2808,-0.5616 c 0.4524,0.24 1.2804,0.5616 1.9668,0.5616 0.7752,0 0.9396,-0.2796 1.5456,-0.4224 v 0.4224 c -0.6312,0.168 -0.7188,0.5616 -1.6872,0.5616 h -0.1392 c -0.4368,0 -1.2684,-0.3756 -1.548,-0.5736"
     style="fill:#7478bb;fill-opacity:1;fill-rule:evenodd;stroke:none"
     id="path235" /><path
     d="m 455.26732,429.62171 h 0.5616 c 0.4536,0 0.6036,0.1836 1.0704,0.336 0.6408,0.2076 0.69,0.0492 0.756,0.648 -0.7116,-0.1656 -2.1516,-0.33 -2.388,-0.984"
     style="fill:#b8ac99;fill-opacity:1;fill-rule:evenodd;stroke:none"
     id="path237" /><path
     d="m 462.43132,429.48251 c 0.102,0.438 0.3492,1.2636 0.8424,1.2636 h 0.1404 c 0.4644,0 0.8784,-0.5916 0.9828,-0.9828 z m -1.1232,-4.4952 0.4284,0.1428 0.132,-0.4236 c 1.5792,0 1.92,-0.372 3.2268,0.144 0.8796,0.3468 2.0268,0.4332 2.814,0.9792 -0.972,1.326 -1.536,0.7032 -3.0912,0.7032 h -0.5616 c -0.8184,0 -1.884,0.366 -2.106,0.9828 0.2808,0.7764 0.7968,0.5772 1.4076,0.9564 l 1.3728,0.2628 3.1176,1.0284 c -1.0404,1.9656 -2.196,3.09 -5.196,3.09 -1.9152,0 -3.7932,-1.7844 -3.7932,-3.6516 v -0.8436 c 0,-1.1568 1.398,-3.144 2.2488,-3.3708"
     style="fill:#8184c7;fill-opacity:1;fill-rule:evenodd;stroke:none"
     id="path239" /><path
     d="m 455.26732,429.62171 c 0.2364,0.654 1.6764,0.8184 2.388,0.984 -0.066,-0.5988 -0.1152,-0.4404 -0.756,-0.648 -0.4668,-0.1524 -0.6168,-0.336 -1.0704,-0.336 z m 2.1072,1.1244 -2.2476,-0.702 -0.1404,-0.5616 c 0.8832,0 2.8092,0.1464 2.8092,0.8424 0,0.3804 -0.0672,0.3876 -0.1788,0.7272"
     style="fill:#d8d1c3;fill-opacity:1;fill-rule:evenodd;stroke:none"
     id="path241" /><path
     d="m 456.25012,433.27451 0.984,-1.9668 0.1404,-0.5616 0.2424,0.306 c 0.1116,-0.3396 0.1788,-0.3468 0.1788,-0.7272 0,-0.696 -1.926,-0.8424 -2.8092,-0.8424 0.1644,-0.2364 0.0204,-0.2808 0.4212,-0.2808 h 0.1404 c 1.1244,0 1.2432,0.42 2.2476,0.42 0.0528,0.2268 0.2808,0.6996 0.2808,0.7032 0,1.3428 -0.96,2.2164 -1.5528,3.102"
     style="fill:#edeae2;fill-opacity:1;fill-rule:evenodd;stroke:none"
     id="path243" /><path
     d="m 445.01332,429.76331 0.198,-0.3288 0.786,1.0308 -0.4248,-0.1332 -0.1368,0.2736"
     style="fill:#f28287;fill-opacity:1;fill-rule:evenodd;stroke:none"
     id="path245" /><path
     d="m 483.21892,426.95291 c 0,1.1508 1.1604,2.2488 2.2476,2.2488 1.056,0 1.4844,-0.5664 2.1072,-0.984 0.1776,0.2664 1.8264,2.058 1.8264,2.1072 0,0.2064 -0.174,0.2064 -0.2808,0.2808 -0.2868,-0.2484 -1.6044,-1.5456 -1.8264,-1.5456 -0.2928,0 -1.164,0.4512 -1.2648,0.7032 h -1.1244 c -0.7152,0 -1.3476,-1.3212 -1.9656,-1.5456 v -1.2648"
     style="fill:#7478bb;fill-opacity:1;fill-rule:evenodd;stroke:none"
     id="path247" /><path
     d="m 511.59172,423.44291 0.5616,0.5616 h 0.8424 c 0,0.8772 -0.8484,5.0556 0,5.0556 h 0.5628 c 3.0204,0 1.9752,-3.1164 1.8264,-4.9152 l 2.388,-0.2808 0.42,2.808 c 0.4764,3.0456 -2.2032,4.4952 -4.9152,4.4952 h -0.9924 l -0.4128,5.6196 -2.3364,0.001 0.6564,-13.5216"
     style="fill:#8186c7;fill-opacity:1;fill-rule:evenodd;stroke:none"
     id="path249" /><path
     d="m 445.99732,430.46531 -0.786,-1.0308 -0.198,0.3288 -0.2808,-1.686 0.4752,-0.6876 0.5088,2.232 0.8412,1.5456"
     style="fill:#ee333b;fill-opacity:1;fill-rule:evenodd;stroke:none"
     id="path251" /><path
     d="m 457.51492,428.07731 0.27,0.006 0.2916,0.4152 -0.3912,0.1332"
     style="fill:#ee1c29;fill-opacity:1;fill-rule:evenodd;stroke:none"
     id="path253" /><path
     d="m 452.59852,428.21771 0.1404,-0.2808 h 0.5616 l 4.2144,0.1404 0.1704,0.5544 0.3912,-0.1332 v -0.2808 h 0.1404 v 0.5616 c -0.9648,0 -5.3232,0.1704 -5.6184,-0.5616"
     style="fill:#f28287;fill-opacity:1;fill-rule:evenodd;stroke:none"
     id="path255" /><path
     d="m 462.15052,427.51571 6.0564,1.6908 -0.1584,0.5568 -3.1176,-1.0284 -1.3728,-0.2628 c -0.6108,-0.3792 -1.1268,-0.18 -1.4076,-0.9564"
     style="fill:#8184c7;fill-opacity:1;fill-rule:evenodd;stroke:none"
     id="path257" /><path
     d="m 449.92972,430.32491 1.5444,1.2648 0.7032,0.5616 h -0.984 c -0.9012,-0.6036 -2.9484,-2.6172 -2.9484,-3.9336 v -0.702 h 0.2808 c 0.0732,0.8928 0.8568,2.4072 1.404,2.8092"
     style="fill:#bfbd9e;fill-opacity:1;fill-rule:evenodd;stroke:none"
     id="path259" /><path
     d="m 521.98612,427.51571 6.084,1.704 -0.606,1.2456 0.1452,-0.7008 c -1.3716,-0.7236 -1.7304,-0.5016 -3.1188,-0.9612 -0.6468,-0.2148 -2.7216,-0.798 -2.5044,-1.2876"
     style="fill:#7576b6;fill-opacity:1;fill-rule:evenodd;stroke:none"
     id="path261" /><path
     d="m 452.45812,427.51571 c 0.6636,0.0144 0.552,-0.1428 0.7032,0.4212 h -0.4224 l -0.1404,0.2808"
     style="fill:#ee333b;fill-opacity:1;fill-rule:evenodd;stroke:none"
     id="path263" /><path
     d="m 493.89412,426.11051 c 0,1.7712 0.5412,1.1244 1.9656,1.1244 l 0.1416,0.2808 c -0.4908,0.114 -0.4728,0.2808 -0.984,0.2808 h -0.4212 c -0.4728,0 -0.9828,-0.2484 -0.9828,-0.702 v -0.2808 c 0,-0.4584 0.072,-0.4632 0.2808,-0.7032"
     style="fill:#787cbe;fill-opacity:1;fill-rule:evenodd;stroke:none"
     id="path265" /><path
     d="m 448.94692,425.26811 -0.1368,0.5424 0.4176,0.1608 -0.8436,0.8424 h -0.1392 l -0.7032,0.702 -0.1392,1.5444 c -0.2724,-0.312 -0.4224,-0.672 -0.4224,-1.2636 v -0.2808 c 0,-0.6444 0.0588,-0.9888 0.5616,-1.1244 v -0.42 c 0,-0.5256 0.8604,-0.6912 1.4052,-0.7032"
     style="fill:#ec1b28;fill-opacity:1;fill-rule:evenodd;stroke:none"
     id="path267" /><path
     d="m 501.89932,426.95291 c 0,1.1508 1.1616,2.2488 2.2488,2.2488 1.0548,0 1.4844,-0.5664 2.106,-0.984 0.1788,0.2664 1.8264,2.058 1.8264,2.1072 0,0.2064 -0.1728,0.2064 -0.2808,0.2808 -0.9156,-0.636 -1.344,-1.8264 -1.9668,-1.8264 -0.348,0 -0.8448,0.8424 -1.5456,0.8424 h -0.5616 c -0.3888,0 -0.3372,-0.108 -0.42,-0.42 -0.8028,-0.018 -1.8264,-1.194 -1.8264,-1.686 v -0.5628"
     style="fill:#7576b6;fill-opacity:1;fill-rule:evenodd;stroke:none"
     id="path269" /><path
     d="m 452.45812,427.09451 v -0.2808 h 0.2808 l 0.984,0.1392 c 0.5712,0.0348 0.006,-0.0648 0.42,0.1416 v 0.4212 h -0.5616 c -0.438,0 -0.8124,-0.2568 -1.1232,-0.4212"
     style="fill:#60272a;fill-opacity:1;fill-rule:evenodd;stroke:none"
     id="path271" /><path
     d="m 448.24492,426.81371 h 0.1392 l 0.282,0.1392 c 0,1.8864 1.1904,2.4876 1.2636,3.372 -0.5472,-0.402 -1.3308,-1.9164 -1.404,-2.8092 h -0.2808 v 0.702 c 0,1.3164 2.0472,3.33 2.9484,3.9336 h 0.984 l -0.7032,-0.5616 2.1072,0.1404 c -0.2184,0.2976 -0.7404,0.702 -1.2636,0.702 h -0.702 c -1.2972,0 -3.6516,-3.0672 -3.6516,-4.4952 0,-0.138 0.2304,-0.9108 0.2808,-1.1232"
     style="fill:#e2d3c3;fill-opacity:1;fill-rule:evenodd;stroke:none"
     id="path273" /><path
     d="m 453.72292,425.97131 h 0.2808 c 0.3036,0.1596 0.702,0.2436 0.702,0.7008 l -0.007,0.27 -0.2736,0.1524 -0.4428,-0.3432 0.3024,-0.0792 -0.0168,-0.3852"
     style="fill:#ed4349;fill-opacity:1;fill-rule:evenodd;stroke:none"
     id="path275" /><path
     d="m 444.73252,428.07731 0.1404,-1.4052 c 0.6264,-0.1452 1.3644,-1.0644 1.6848,-1.5444 l 0.4584,-0.4908 0.8064,-0.492 0.7032,-0.2808 h 0.4212 c -0.816,0.7092 -1.926,1.2204 -2.37,2.2644 -0.7524,1.7688 -0.8604,1.1196 -0.8604,3.4932 l -0.5088,-2.232"
     style="fill:#ec1a29;fill-opacity:1;fill-rule:evenodd;stroke:none"
     id="path277" /><path
     d="m 452.73892,426.81371 0.3672,-0.0516 0.3504,-0.4332 -3.246,-0.6396 -0.2808,-0.1404 -10e-4,-0.2856 1.2648,-0.1356 1.2468,0.1752 1.2828,0.6684 0.5448,0.3156 0.0168,0.3852 -0.3024,0.0792 0.4428,0.3432 h -0.282 c -0.414,-0.2064 0.1512,-0.1068 -0.42,-0.1416"
     style="fill:#f3999b;fill-opacity:1;fill-rule:evenodd;stroke:none"
     id="path279" /><path
     d="m 501.61852,423.02051 c 0.6588,-0.0552 0.6948,-0.2808 1.4064,-0.2808 h 1.2624 c 1.4784,0 3.6588,1.5936 4.6368,2.2656 l 0.8424,-0.1584 0.2808,0.1404 c -0.18,0.2688 -2.2224,1.6848 -2.388,1.6848 -0.1908,0 -1.5456,-1.5444 -2.9496,-1.5444 h -0.5616 c -0.8508,0 -2.0688,1.0584 -2.2488,1.8252 h -0.42 v 0.5628 c 0,0.492 1.0236,1.668 1.8264,1.686 0.0828,0.312 0.0312,0.42 0.42,0.42 h 0.5616 c 0.7008,0 1.1976,-0.8424 1.5456,-0.8424 0.6228,0 1.0512,1.1904 1.9668,1.8264 -0.4104,0.612 -2.1984,1.5456 -3.2316,1.5456 h -0.2808 c -2.1696,0 -4.7748,-2.85 -4.7748,-5.0568 v -0.5616 c 0,-1.1796 1.2312,-3.2784 2.106,-3.5124"
     style="fill:#8184c7;fill-opacity:1;fill-rule:evenodd;stroke:none"
     id="path281" /><path
     d="m 445.43572,425.68931 0.1716,0.1728 0.6708,-0.7344 h 0.2796 c -0.3204,0.48 -1.0584,1.3992 -1.6848,1.5444"
     style="fill:#d71e2a;fill-opacity:1;fill-rule:evenodd;stroke:none"
     id="path283" /><path
     d="m 454.70572,424.70651 0.1404,-0.2808 0.2808,0.1404 v 0.1404 c -0.0468,0.558 -0.3456,0.8472 -0.702,0.4212 l 0.4476,-0.01"
     style="fill:#b6222b;fill-opacity:1;fill-rule:evenodd;stroke:none"
     id="path285" /><path
     d="m 448.94692,425.26811 c 0.4704,-0.0384 1.9032,-0.5508 2.2464,-0.1404 l -1.2648,0.1356 0.001,0.2856 0.2808,0.1404 -0.9828,0.282 -0.4176,-0.1608"
     style="fill:#ee333b;fill-opacity:1;fill-rule:evenodd;stroke:none"
     id="path287" /><path
     d="m 446.69932,424.42571 1.1232,-0.2808 -0.8064,0.492 -0.4584,0.4908 h -0.2796 l -0.6708,0.7344 -0.1716,-0.1728 0.9828,-1.2636"
     style="fill:#9a262c;fill-opacity:1;fill-rule:evenodd;stroke:none"
     id="path289" /><path
     d="m 461.30812,424.98731 c 0.3732,-0.51 1.6428,-0.9828 2.5272,-0.9828 1.2696,0 4.0056,1.0176 4.4844,1.6584 l -0.4104,0.1668 c -0.7872,-0.546 -1.9344,-0.6324 -2.814,-0.9792 -1.3068,-0.516 -1.6476,-0.144 -3.2268,-0.144 l -0.132,0.4236"
     style="fill:#8184c7;fill-opacity:1;fill-rule:evenodd;stroke:none"
     id="path291" /><path
     d="m 527.74492,425.82971 c -0.474,-0.3 -1.1244,-0.3192 -1.5732,-0.672 -0.5736,-0.4512 -0.6,-0.5916 -1.6584,-0.5916 h -0.9816 c -1.596,0 -2.7708,1.2072 -3.5124,1.4052 0.3972,-0.5916 1.8936,-1.8264 2.8092,-1.8264 h 1.2648 c 1.2552,0 3.5952,0.8928 4.0632,1.518"
     style="fill:#7478bb;fill-opacity:1;fill-rule:evenodd;stroke:none"
     id="path293" /><path
     d="m 446.55772,431.16731 -0.8412,-1.5456 c 0,-2.3736 0.108,-1.7244 0.8604,-3.4932 0.444,-1.044 1.554,-1.5552 2.37,-2.2644 h -0.4212 c 0.1776,-0.4416 0.9432,-0.4212 1.5444,-0.4212 h 0.7032 c 1.5264,0 2.6976,1.0452 3.6516,1.6848 0.3564,0.426 0.6552,0.1368 0.702,-0.4212 l 0.4212,0.1404 v -0.702 c 0.4812,-0.1752 0.654,-0.9636 0.6948,-1.524 l -0.2736,-0.162 1.2648,0.2808 c -0.8556,0.3456 -0.3324,4.2096 -0.5616,5.1972 h -3.5112 c -0.1512,-0.564 -0.0396,-0.4068 -0.7032,-0.4212 v -0.4212 c 0.3108,0.1644 0.6852,0.4212 1.1232,0.4212 h 0.5616 v -0.4212 h 0.282 l 0.2736,-0.1524 0.007,-0.27 c 0,-0.4572 -0.3984,-0.5412 -0.702,-0.7008 h -0.2808 l -1.2828,-0.6684 -1.2468,-0.1752 c -0.3432,-0.4104 -1.776,0.102 -2.2464,0.1404 -0.5448,0.012 -1.4052,0.1776 -1.4052,0.7032 v 0.42 c -0.5028,0.1356 -0.5616,0.48 -0.5616,1.1244 v 0.2808 c 0,0.5916 0.15,0.9516 0.4224,1.2636 l 0.1392,-1.5444 c 0,3.4188 2.5596,4.26 2.8092,5.1972 0.6588,0.0552 0.6948,0.2808 1.4052,0.2808 h 0.1404 c 0.8016,0 1.5024,-0.3588 1.8264,-0.8424 l 0.702,-0.7032 -0.6276,1.0824 c 1.7952,-0.3624 1.1712,-1.0728 1.8912,-1.3632 l -0.1404,-0.2808 0.9828,0.2808 h -0.42 c -0.1932,0.7188 -1.2084,1.7196 -1.7976,2.136 -0.9084,0.6432 -1.3116,0.954 -2.9784,0.954 -1.9692,0 -4.1172,-1.8432 -4.7772,-3.09"
     style="fill:#ea1b28;fill-opacity:1;fill-rule:evenodd;stroke:none"
     id="path295" /><path
     d="m 496.70332,424.00451 v -0.7032 h 2.388 l 0.0564,2.1156 -0.3384,2.2392 c -0.3372,-0.534 -0.1452,-2.0148 -0.1368,-2.8128 0.0144,-1.302 -0.4476,-1.0056 -1.8084,-1.1136"
     style="fill:#787ebf;fill-opacity:1;fill-rule:evenodd;stroke:none"
     id="path297" /><path
     d="m 471.42052,423.72371 c 0.4332,-0.3768 1.4244,-0.7032 2.2476,-0.7032 h 0.4212 c 2.1864,0 5.7588,3.2532 5.7588,5.3376 0,0.666 -0.1572,1.0152 -0.2808,1.5456 -0.084,-0.1332 -0.2268,-1.7124 -0.474,-2.3352 -0.144,-0.3636 -0.3324,-0.7008 -0.5856,-0.9588 -0.624,-0.636 -0.2256,-0.3396 -0.5784,-0.9684 -0.48,-0.8592 -2.5272,-2.1984 -3.9804,-2.1984 h -0.7032 c -0.7956,0 -0.8004,0.2808 -1.8252,0.2808"
     style="fill:#7576b6;fill-opacity:1;fill-rule:evenodd;stroke:none"
     id="path299" /><path
     d="m 515.52412,423.72371 1.386,-0.4248 0.1596,-0.5592 0.1176,0.1176 0.1632,-0.1176 v 0.8424 h 0.2808 l 0.1416,0.282 -2.388,0.2808 -0.1344,-0.2592"
     style="fill:#ece5dd;fill-opacity:1;fill-rule:evenodd;stroke:none"
     id="path301" /><path
     d="m 448.52572,423.86411 -0.7032,0.2808 -1.1232,0.2808 1.2648,-0.9828 c 1.4184,-0.7512 3.1068,-0.9492 4.6344,-0.1416 l 0.4212,0.1416 1.686,1.2636 0.1668,0.4116 -0.4476,0.01 c -0.954,-0.6396 -2.1252,-1.6848 -3.6516,-1.6848 h -0.7032 c -0.6012,0 -1.3668,-0.0204 -1.5444,0.4212"
     style="fill:#60272a;fill-opacity:1;fill-rule:evenodd;stroke:none"
     id="path303" /><path
     d="m 493.89412,426.11051 c -0.2088,0.24 -0.2808,0.2448 -0.2808,0.7032 v 0.2808 c 0,0.4536 0.51,0.702 0.9828,0.702 h 0.4212 c 0.5112,0 0.4932,-0.1668 0.984,-0.2808 l -0.1416,-0.2808 c 0.4848,-1.0092 0.7128,-1.686 -0.7008,-1.686 h -0.4224 c -0.348,0 -0.528,0.3516 -0.8424,0.5616 m -10.956,-3.09 c 0.9168,0 0.8928,-0.2808 1.6848,-0.2808 h 0.5628 c 1.6848,0 2.4084,0.9624 3.3708,0.984 0.192,0.36 1.9248,1.404 2.388,1.404 h 0.5616 v -0.2808 c 0.474,-0.708 1.7412,-1.404 2.9496,-1.404 h 0.4224 c 0.762,0 1.5684,0.6744 1.8252,0.5616 l 0.1608,-0.2748 c 1.3608,0.108 1.8228,-0.1884 1.8084,1.1136 -0.008,0.798 -0.2004,2.2788 0.1368,2.8128 -0.4752,2.046 -2.292,4.4952 -4.6344,4.4952 h -0.984 c -0.6888,0 -2.6676,-0.9252 -2.6676,-1.2648 0,-0.4152 0.3492,-0.8796 0.5616,-1.1232 l 0.4188,-0.012 c 0.2796,0.198 1.1112,0.5736 1.548,0.5736 h 0.1392 c 0.9684,0 1.056,-0.3936 1.6872,-0.5616 v -0.4224 l 0.2808,-0.42 c -2.0724,0 -5.0376,-1.5048 -4.074,-3.5124 -0.4536,0.1212 -1.9752,1.2636 -2.1072,1.2636 -0.1896,0 -1.5468,-1.5444 -2.9496,-1.5444 h -0.5616 c -0.8508,0 -2.0688,1.0584 -2.2476,1.8252 h -0.2808 v 1.2648 c 0.618,0.2244 1.2504,1.5456 1.9656,1.5456 h 1.1244 c 0.1008,-0.252 0.972,-0.7032 1.2648,-0.7032 0.222,0 1.5396,1.2972 1.8264,1.5456 -0.4104,0.612 -2.1996,1.5456 -3.2316,1.5456 h -0.2808 c -2.1696,0 -4.776,-2.85 -4.776,-5.0568 v -0.5616 c 0,-1.1796 1.2312,-3.2784 2.1072,-3.5124"
     style="fill:#7f84c7;fill-opacity:1;fill-rule:evenodd;stroke:none"
     id="path305" /><path
     d="m 457.23412,422.73971 h 0.2808 v 5.3376 l -4.2144,-0.1404 h 3.372 c 0.2292,-0.9876 -0.294,-4.8516 0.5616,-5.1972"
     style="fill:#ec1a29;fill-opacity:1;fill-rule:evenodd;stroke:none"
     id="path307" /><path
     d="m 457.51492,428.07731 v -5.3376 h -0.2808 l -1.2648,-0.2808 -0.4296,0.0132 -0.834,-0.5748 0.8424,-0.1404 2.388,0.4212 0.1404,6.0396 v 0.2808 l -0.2916,-0.4152"
     style="fill:#7a262c;fill-opacity:1;fill-rule:evenodd;stroke:none"
     id="path309" /><path
     d="m 454.84612,424.42571 -0.1404,-1.4052 v -0.42 l 0.1404,-0.2808 c 0.318,0.084 0.5616,0.1344 0.5616,0.5616 v 1.2636 c 0,0.3948 -0.0612,0.2604 -0.2808,0.4212"
     style="fill:#ef2732;fill-opacity:1;fill-rule:evenodd;stroke:none"
     id="path311" /><path
     d="m 455.12692,424.70651 v -0.1404 c 0.2196,-0.1608 0.2808,-0.0264 0.2808,-0.4212 v -1.2636 c 0,-0.4272 -0.2436,-0.4776 -0.5616,-0.5616 l -0.1404,0.2808 v -0.7032 l 0.834,0.5748 0.4296,-0.0132 0.2736,0.162 c -0.0408,0.5604 -0.2136,1.3488 -0.6948,1.524 v 0.702"
     style="fill:#ec1b28;fill-opacity:1;fill-rule:evenodd;stroke:none"
     id="path313" /><path
     d="m 482.93812,423.02051 c 1.6188,-2.2092 7.4304,0.798 8.2944,1.9788 l 0.2736,-0.1524 v 0.2808 h -0.5616 c -0.4632,0 -2.196,-1.044 -2.388,-1.404 -0.9624,-0.0216 -1.686,-0.984 -3.3708,-0.984 h -0.5628 c -0.792,0 -0.768,0.2808 -1.6848,0.2808"
     style="fill:#7576b6;fill-opacity:1;fill-rule:evenodd;stroke:none"
     id="path315" /><path
     d="m 453.01972,423.44291 -0.4212,-0.1416 c -0.234,-0.8772 -2.1108,-0.7008 -3.2304,-0.7008 0.3552,-0.3108 0.876,-0.4224 1.5444,-0.4224 h 0.1416 c 1.0968,0 3.1416,0.6276 3.2064,1.7388"
     style="fill:#b8ac99;fill-opacity:1;fill-rule:evenodd;stroke:none"
     id="path317" /><path
     d="m 501.61852,423.02051 c 1.6908,-2.3064 6.9516,0.7872 8.148,1.8264 l -0.8424,0.1584 c -0.978,-0.672 -3.1584,-2.2656 -4.6368,-2.2656 h -1.2624 c -0.7116,0 -0.7476,0.2256 -1.4064,0.2808"
     style="fill:#7576b6;fill-opacity:1;fill-rule:evenodd;stroke:none"
     id="path319" /><path
     d="m 453.01972,423.44291 1.2408,0.474 c -0.0648,-1.1112 -2.1096,-1.7388 -3.2064,-1.7388 h -0.1416 c -0.6684,0 -1.1892,0.1116 -1.5444,0.4224 1.1196,0 2.9964,-0.1764 3.2304,0.7008 -1.5276,-0.8076 -3.216,-0.6096 -4.6344,0.1416 l -0.2808,-0.1416 c 0.384,-0.5244 2.0964,-1.2636 3.09,-1.2636 h 0.1392 c 1.7532,0 2.9748,0.6036 3.7932,1.5444 v -0.5616 l 0.1404,1.4052 -0.1404,0.2808"
     style="fill:#e2d3c3;fill-opacity:1;fill-rule:evenodd;stroke:none"
     id="path321" /><path
     d="m 457.93612,422.17811 0.4212,0.1416 v -0.4224 l 0.2808,0.1404 c 0,0.9936 -0.072,2.2752 -0.002,3.2328 0.0504,0.684 0.5544,2.5848 -0.2784,2.8068 v -0.8424 h -0.1404 v 0.9828 h -0.1404"
     style="fill:#d8d1c3;fill-opacity:1;fill-rule:evenodd;stroke:none"
     id="path323" /><path
     d="m 457.93612,422.17811 -2.388,-0.4212 0.432,-0.084 -0.5724,-0.0564 v -0.4212 c 0.8172,0.0168 2.5932,0.216 2.9496,0.702 v 0.4224"
     style="fill:#bfbd9e;fill-opacity:1;fill-rule:evenodd;stroke:none"
     id="path325" /><path
     d="m 512.99572,421.19531 h 0.28078 v 1.545 h -0.28078 z"
     style="fill:#ffffff;fill-opacity:1;fill-rule:evenodd;stroke:none"
     id="path327" /><path
     d="m 515.66572,418.94771 h 0.28078 v 4.07344 h -0.28078 z"
     style="fill:#ffffff;fill-opacity:1;fill-rule:evenodd;stroke:none"
     id="path329" /><path
     d="m 512.99572,422.73971 h 0.2808 v -1.5444 h -0.2808 z m -1.404,0.7032 h 0.2808 v -5.1972 h 1.1232 v 2.106 c 0.6336,0.0144 1.4052,0.2532 1.4052,0.8436 v 1.5444 c 0,0.5904 -0.7716,0.8292 -1.4052,0.8424 v 0.4224 h -0.8424"
     style="fill:#babddd;fill-opacity:1;fill-rule:evenodd;stroke:none"
     id="path331" /><path
     d="m 515.66572,423.02051 h 0.2808 v -4.074 h -0.2808 z m 1.404,-0.2808 -0.1596,0.5592 -1.386,0.4248 c -0.6924,-0.3336 -0.9828,-0.2508 -0.9828,-1.404 v -2.9508 c 0,-0.7608 0.5184,-1.1232 1.2648,-1.1232 1.8048,0 1.2636,2.6124 1.2636,4.494"
     style="fill:#babddd;fill-opacity:1;fill-rule:evenodd;stroke:none"
     id="path333" /><path
     d="m 517.35052,422.73971 v -4.494 h 1.9668 v 0.8424 h -0.8436 v 4.494 h -1.1232"
     style="fill:#babddd;fill-opacity:1;fill-rule:evenodd;stroke:none"
     id="path335" /><path
     d="m 520.58092,422.60051 c 0,0.3876 0.1092,0.3372 0.4224,0.42 v -1.2636 h 1.1232 v 0.8436 c 0,0.7596 -0.5184,1.1232 -1.2636,1.1232 -0.546,0 -1.2648,-0.3228 -1.2648,-0.8424 v -0.8436 c 0,-1.1736 1.4052,-1.2132 1.4052,-2.3868 v -0.7032 c -0.3132,0.0828 -0.4224,0.0336 -0.4224,0.4212 v 0.9828 h -0.9828 v -1.2636 c 0,-0.5208 0.7188,-0.8424 1.2648,-0.8424 0.7452,0 1.2636,0.3624 1.2636,1.1232 v 0.5628 c 0,1.0308 -1.5456,1.5972 -1.5456,2.388"
     style="fill:#babddd;fill-opacity:1;fill-rule:evenodd;stroke:none"
     id="path337" /><path
     d="m 524.51332,421.33571 c 0,0.3816 0.4428,1.9944 0.564,2.2464 h -0.984 l -0.5064,-2.0868 -0.0552,-0.0192 v 2.106 h -1.1244 v -5.3364 h 1.1244 v 2.3868 h 0.1392 l 0.3264,-2.3796 2.0616,-0.007 0.1764,1.4004 0.5268,0.005 v -0.4224 c 0,-0.4848 0.1032,-0.5436 0.1392,-0.9828 h 1.1244 l -0.702,5.3364 h -1.4052 l -0.7728,-5.1852 c -0.2916,0.2544 -0.6324,2.2668 -0.6324,2.9388"
     style="fill:#babddd;fill-opacity:1;fill-rule:evenodd;stroke:none"
     id="path339" /></g><text
   id="text13939"
   transform="matrix(0,-1,-1,0,0,0)"
   x="-689.1579"
   y="-357.03763"
   style="font-size:16.8538px;stroke-width:1.40448"><tspan
     id="tspan13941"
     sodipodi:role="line"
     style="font-variant:normal;font-weight:500;font-size:22.4598px;font-family:BankGothicBT;-inkscape-font-specification:BankGothicBT-Medium;writing-mode:lr-tb;fill:#231f20;fill-opacity:1;fill-rule:nonzero;stroke:none;stroke-width:1.40448"
     x="-689.1579"
     y="-357.03763" /><tspan
     id="tspan13943"
     sodipodi:role="line"
     y="-327.55927"
     x="-696.43335 -678.71259 -660.99188 -643.27112 -635.83691 -619.7782 -605.67346 -592.01794 -576.02655 -561.9668 -547.45776 -532.99365 -516.86755 -510.33179 -494.34042 -478.79828 -471.36407 -457.25937"
     style="font-variant:normal;font-weight:500;font-size:22.4598px;font-family:BankGothicBT;-inkscape-font-specification:BankGothicBT-Medium;writing-mode:lr-tb;fill:#231f20;fill-opacity:1;fill-rule:nonzero;stroke:none;stroke-width:1.40448">www.opencaching.pl</tspan></text><path
   id="path14072"
   style="fill:none;stroke:#231f20;stroke-width:0.499734;stroke-linecap:round;stroke-linejoin:round;stroke-miterlimit:4;stroke-dasharray:0, 0.988475;stroke-dashoffset:0;stroke-opacity:1"
   d="M 7.819985,421.50587 H 48.834904" /><path
   id="path14074"
   style="fill:none;stroke:#231f20;stroke-width:0.499734;stroke-linecap:round;stroke-linejoin:round;stroke-miterlimit:4;stroke-dasharray:0, 0.988475;stroke-dashoffset:0;stroke-opacity:1"
   d="m 547.36424,421.50587 h 41.01492" /><text
   transform="scale(1,-1)"
   id="text693"
   x="24.649199"
   y="-30.848152"><tspan
     style="font-variant:normal;font-weight:normal;font-size:7.99575px;font-family:TimesNewRomanPSMT;-inkscape-font-specification:TimesNewRomanPSMT;writing-mode:lr-tb;fill:#231f20;fill-opacity:1;fill-rule:nonzero;stroke:none"
     sodipodi:role="line"
     id="tspan695"
     x="24.649199"
     y="-30.848152">Original design by </tspan></text>











<text
   transform="scale(1,-1)"
   id="text697"
   x="107.29499"
   y="-30.848152"><tspan
     style="font-variant:normal;font-weight:500;font-size:7.99575px;font-family:BankGothicBT;-inkscape-font-specification:BankGothicBT-Medium;writing-mode:lr-tb;fill:#231f20;fill-opacity:1;fill-rule:nonzero;stroke:none"
     x="107.29499 113.28378 118.83284 124.03008 126.35684 131.52209 137.21507 144.61913 149.34459 154.06209 159.57115 164.87233 167.1991 172.15648 174.80305 179.95232 185.66928"
     y="-30.848152"
     sodipodi:role="line"
     id="tspan699">AdrianMatusik.com</tspan></text>











<text
   transform="scale(1,-1)"
   id="text2889"
   x="24.649199"
   y="-20.476364"><tspan
     style="font-variant:normal;font-weight:normal;font-size:7.99575px;font-family:TimesNewRomanPSMT;-inkscape-font-specification:TimesNewRomanPSMT;writing-mode:lr-tb;fill:#231f20;fill-opacity:1;fill-rule:nonzero;stroke:none"
     sodipodi:role="line"
     id="tspan2891"
     x="24.649199"
     y="-20.476364">Revised by</tspan></text>











<text
   transform="scale(1,-1)"
   id="text2893"
   x="107.29499"
   y="-20.476364"><tspan
     style="font-variant:normal;font-weight:500;font-size:7.99575px;font-family:BankGothicBT;-inkscape-font-specification:BankGothicBT-Medium;writing-mode:lr-tb;fill:#231f20;fill-opacity:1;fill-rule:nonzero;stroke:none"
     sodipodi:role="line"
     id="tspan2895"
     x="107.29499"
     y="-20.476364">rush@rushbase.net / www.rushbase.net</tspan></text>




























<text
   transform="matrix(0,-1,-1,0,0,0)"
   id="text415-6"
   x="-271.37073"
   y="-182.19426"
   style="font-size:15.578px;text-align:center;text-anchor:middle;stroke-width:1"><tspan
     style="font-variant:normal;font-weight:normal;font-size:15.5697px;font-family:Helvetica;-inkscape-font-specification:Helvetica;text-align:center;writing-mode:lr-tb;text-anchor:middle;fill:#231f20;fill-opacity:1;fill-rule:nonzero;stroke:none;stroke-width:1"
     sodipodi:role="line"
     x="-271.37073"
     y="-182.19426"
     xml:id="cachename"
     id="tspan281">%CACHENAME%</tspan></text><text
   transform="matrix(0,-1,-1,0,0,0)"
   id="text415-7"
   x="-268.73575"
   y="-131.70699"
   style="font-size:15.578px;text-align:center;text-anchor:middle;stroke-width:1"><tspan
     style="font-variant:normal;font-weight:normal;font-size:15.5697px;font-family:Helvetica;-inkscape-font-specification:Helvetica;text-align:center;writing-mode:lr-tb;text-anchor:middle;fill:#231f20;fill-opacity:1;fill-rule:nonzero;stroke:none;stroke-width:1"
     sodipodi:role="line"
     x="-268.73575"
     y="-131.70699"
     xml:id="coords"
     id="tspan279">%COORDS%</tspan></text></g></svg>
